<?xml version="1.0" encoding="utf-8" standalone="no"?>
<!DOCTYPE svg PUBLIC "-//W3C//DTD SVG 1.1//EN"
  "http://www.w3.org/Graphics/SVG/1.1/DTD/svg11.dtd">
<svg xmlns:xlink="http://www.w3.org/1999/xlink" width="282.528pt" height="81.432pt" viewBox="0 0 282.528 81.432" xmlns="http://www.w3.org/2000/svg" version="1.1">
 <metadata>
  <rdf:RDF xmlns:dc="http://purl.org/dc/elements/1.1/" xmlns:cc="http://creativecommons.org/ns#" xmlns:rdf="http://www.w3.org/1999/02/22-rdf-syntax-ns#">
   <cc:Work>
    <dc:type rdf:resource="http://purl.org/dc/dcmitype/StillImage"/>
    <dc:date>2026-07-19T19:30:28.476401</dc:date>
    <dc:format>image/svg+xml</dc:format>
    <dc:creator>
     <cc:Agent>
      <dc:title>Matplotlib v3.5.3, https://matplotlib.org/</dc:title>
     </cc:Agent>
    </dc:creator>
   </cc:Work>
  </rdf:RDF>
 </metadata>
 <defs>
  <style type="text/css">*{stroke-linejoin: round; stroke-linecap: butt}</style>
 </defs>
 <g id="figure_1">
  <g id="patch_1">
   <path d="M 0 81.432 
L 282.528 81.432 
L 282.528 0 
L 0 0 
z
" style="fill: #ffffff"/>
  </g>
  <g id="axes_1"/>
  <g id="text_1">
   <text style="font: 6.8px 'sans-serif'; text-anchor: middle" x="141.264" y="23.782438" transform="rotate(-0, 141.264, 23.782438)">Bubble area: compute efficiency (1/FLOPs)</text>
  </g>
  <g id="legend_1">
   <g id="line2d_1">
    <defs>
     <path id="me5cf93625c" d="M 0 3.1 
C 0.82213 3.1 1.610698 2.773364 2.192031 2.192031 
C 2.773364 1.610698 3.1 0.82213 3.1 0 
C 3.1 -0.82213 2.773364 -1.610698 2.192031 -2.192031 
C 1.610698 -2.773364 0.82213 -3.1 0 -3.1 
C -0.82213 -3.1 -1.610698 -2.773364 -2.192031 -2.192031 
C -2.773364 -1.610698 -3.1 -0.82213 -3.1 0 
C -3.1 0.82213 -2.773364 1.610698 -2.192031 2.192031 
C -1.610698 2.773364 -0.82213 3.1 0 3.1 
z
" style="stroke: #000000; stroke-opacity: 0"/>
    </defs>
    <g>
     <use xlink:href="#me5cf93625c" x="78.358703" y="51.092797" style="fill: #9aa7b4; stroke: #000000; stroke-opacity: 0"/>
    </g>
   </g>
   <g id="text_2">
    <text style="font: 6.2px 'sans-serif'; text-anchor: start" x="89.518703" y="53.262797" transform="rotate(-0, 89.518703, 53.262797)">2.31e-04</text>
   </g>
   <g id="line2d_2">
    <defs>
     <path id="m52f0444e76" d="M 0 3.613331 
C 0.958267 3.613331 1.877414 3.232608 2.555011 2.555011 
C 3.232608 1.877414 3.613331 0.958267 3.613331 0 
C 3.613331 -0.958267 3.232608 -1.877414 2.555011 -2.555011 
C 1.877414 -3.232608 0.958267 -3.613331 0 -3.613331 
C -0.958267 -3.613331 -1.877414 -3.232608 -2.555011 -2.555011 
C -3.232608 -1.877414 -3.613331 -0.958267 -3.613331 0 
C -3.613331 0.958267 -3.232608 1.877414 -2.555011 2.555011 
C -1.877414 3.232608 -0.958267 3.613331 0 3.613331 
z
" style="stroke: #000000; stroke-opacity: 0"/>
    </defs>
    <g>
     <use xlink:href="#m52f0444e76" x="127.322234" y="51.092797" style="fill: #9aa7b4; stroke: #000000; stroke-opacity: 0"/>
    </g>
   </g>
   <g id="text_3">
    <text style="font: 6.2px 'sans-serif'; text-anchor: start" x="138.482234" y="53.262797" transform="rotate(-0, 138.482234, 53.262797)">8.31e-04</text>
   </g>
   <g id="line2d_3">
    <defs>
     <path id="m1b7fb18124" d="M 0 10.281537 
C 2.726695 10.281537 5.34208 9.198209 7.270144 7.270144 
C 9.198209 5.34208 10.281537 2.726695 10.281537 0 
C 10.281537 -2.726695 9.198209 -5.34208 7.270144 -7.270144 
C 5.34208 -9.198209 2.726695 -10.281537 0 -10.281537 
C -2.726695 -10.281537 -5.34208 -9.198209 -7.270144 -7.270144 
C -9.198209 -5.34208 -10.281537 -2.726695 -10.281537 0 
C -10.281537 2.726695 -9.198209 5.34208 -7.270144 7.270144 
C -5.34208 9.198209 -2.726695 10.281537 0 10.281537 
z
" style="stroke: #000000; stroke-opacity: 0"/>
    </defs>
    <g>
     <use xlink:href="#m1b7fb18124" x="176.285766" y="51.092797" style="fill: #9aa7b4; stroke: #000000; stroke-opacity: 0"/>
    </g>
   </g>
   <g id="text_4">
    <text style="font: 6.2px 'sans-serif'; text-anchor: start" x="187.445766" y="53.262797" transform="rotate(-0, 187.445766, 53.262797)">1.70e-02</text>
   </g>
  </g>
 </g>
</svg>
