<?xml version="1.0" encoding="utf-8" standalone="no"?>
<!DOCTYPE svg PUBLIC "-//W3C//DTD SVG 1.1//EN"
  "http://www.w3.org/Graphics/SVG/1.1/DTD/svg11.dtd">
<svg xmlns:xlink="http://www.w3.org/1999/xlink" width="318.900812pt" height="262.574pt" viewBox="0 0 318.900812 262.574" xmlns="http://www.w3.org/2000/svg" version="1.1">
 <metadata>
  <rdf:RDF xmlns:dc="http://purl.org/dc/elements/1.1/" xmlns:cc="http://creativecommons.org/ns#" xmlns:rdf="http://www.w3.org/1999/02/22-rdf-syntax-ns#">
   <cc:Work>
    <dc:type rdf:resource="http://purl.org/dc/dcmitype/StillImage"/>
    <dc:date>2026-07-19T01:19:00.431454</dc:date>
    <dc:format>image/svg+xml</dc:format>
    <dc:creator>
     <cc:Agent>
      <dc:title>Matplotlib v3.5.3, https://matplotlib.org/</dc:title>
     </cc:Agent>
    </dc:creator>
   </cc:Work>
  </rdf:RDF>
 </metadata>
 <defs>
  <style type="text/css">*{stroke-linejoin: round; stroke-linecap: butt}</style>
 </defs>
 <g id="figure_1">
  <g id="patch_1">
   <path d="M 0 262.574 
L 318.900812 262.574 
L 318.900812 0 
L 0 0 
z
" style="fill: #ffffff"/>
  </g>
  <g id="axes_1">
   <g id="patch_2">
    <path d="M 33.492812 179.568 
L 311.700812 179.568 
L 311.700812 37.008 
L 33.492812 37.008 
z
" style="fill: #ffffff"/>
   </g>
   <g id="matplotlib.axis_1">
    <g id="xtick_1">
     <g id="line2d_1">
      <path d="M 44.802081 179.568 
L 44.802081 37.008 
" clip-path="url(#p1932db65c5)" style="fill: none; stroke: #d9dee3; stroke-opacity: 0.85; stroke-width: 0.6; stroke-linecap: square"/>
     </g>
     <g id="line2d_2">
      <defs>
       <path id="md6712be8aa" d="M 0 0 
L 0 3.5 
" style="stroke: #000000; stroke-width: 0.8"/>
      </defs>
      <g>
       <use xlink:href="#md6712be8aa" x="44.802081" y="179.568" style="stroke: #000000; stroke-width: 0.8"/>
      </g>
     </g>
     <g id="text_1">
      <text style="font: 7px 'sans-serif'; text-anchor: middle" x="44.802081" y="191.578469" transform="rotate(-0, 44.802081, 191.578469)">0</text>
     </g>
    </g>
    <g id="xtick_2">
     <g id="line2d_3">
      <path d="M 102.705534 179.568 
L 102.705534 37.008 
" clip-path="url(#p1932db65c5)" style="fill: none; stroke: #d9dee3; stroke-opacity: 0.85; stroke-width: 0.6; stroke-linecap: square"/>
     </g>
     <g id="line2d_4">
      <g>
       <use xlink:href="#md6712be8aa" x="102.705534" y="179.568" style="stroke: #000000; stroke-width: 0.8"/>
      </g>
     </g>
     <g id="text_2">
      <text style="font: 7px 'sans-serif'; text-anchor: middle" x="102.705534" y="191.578469" transform="rotate(-0, 102.705534, 191.578469)">0.8</text>
     </g>
    </g>
    <g id="xtick_3">
     <g id="line2d_5">
      <path d="M 160.608988 179.568 
L 160.608988 37.008 
" clip-path="url(#p1932db65c5)" style="fill: none; stroke: #d9dee3; stroke-opacity: 0.85; stroke-width: 0.6; stroke-linecap: square"/>
     </g>
     <g id="line2d_6">
      <g>
       <use xlink:href="#md6712be8aa" x="160.608988" y="179.568" style="stroke: #000000; stroke-width: 0.8"/>
      </g>
     </g>
     <g id="text_3">
      <text style="font: 7px 'sans-serif'; text-anchor: middle" x="160.608988" y="191.578469" transform="rotate(-0, 160.608988, 191.578469)">1.6</text>
     </g>
    </g>
    <g id="xtick_4">
     <g id="line2d_7">
      <path d="M 218.512442 179.568 
L 218.512442 37.008 
" clip-path="url(#p1932db65c5)" style="fill: none; stroke: #d9dee3; stroke-opacity: 0.85; stroke-width: 0.6; stroke-linecap: square"/>
     </g>
     <g id="line2d_8">
      <g>
       <use xlink:href="#md6712be8aa" x="218.512442" y="179.568" style="stroke: #000000; stroke-width: 0.8"/>
      </g>
     </g>
     <g id="text_4">
      <text style="font: 7px 'sans-serif'; text-anchor: middle" x="218.512442" y="191.578469" transform="rotate(-0, 218.512442, 191.578469)">2.4</text>
     </g>
    </g>
    <g id="xtick_5">
     <g id="line2d_9">
      <path d="M 276.415895 179.568 
L 276.415895 37.008 
" clip-path="url(#p1932db65c5)" style="fill: none; stroke: #d9dee3; stroke-opacity: 0.85; stroke-width: 0.6; stroke-linecap: square"/>
     </g>
     <g id="line2d_10">
      <g>
       <use xlink:href="#md6712be8aa" x="276.415895" y="179.568" style="stroke: #000000; stroke-width: 0.8"/>
      </g>
     </g>
     <g id="text_5">
      <text style="font: 7px 'sans-serif'; text-anchor: middle" x="276.415895" y="191.578469" transform="rotate(-0, 276.415895, 191.578469)">3.2</text>
     </g>
    </g>
    <g id="text_6">
     <text style="font: 8px 'sans-serif'; text-anchor: middle" x="172.596812" y="202.793469" transform="rotate(-0, 172.596812, 202.793469)">Parameter efficiency (1/M)</text>
    </g>
   </g>
   <g id="matplotlib.axis_2">
    <g id="ytick_1">
     <g id="line2d_11">
      <path d="M 33.492812 164.156108 
L 311.700812 164.156108 
" clip-path="url(#p1932db65c5)" style="fill: none; stroke: #d9dee3; stroke-opacity: 0.85; stroke-width: 0.6; stroke-linecap: square"/>
     </g>
     <g id="line2d_12">
      <defs>
       <path id="mfc4ee48b16" d="M 0 0 
L -3.5 0 
" style="stroke: #000000; stroke-width: 0.8"/>
      </defs>
      <g>
       <use xlink:href="#mfc4ee48b16" x="33.492812" y="164.156108" style="stroke: #000000; stroke-width: 0.8"/>
      </g>
     </g>
     <g id="text_7">
      <text style="font: 7px 'sans-serif'; text-anchor: end" x="26.492812" y="166.661342" transform="rotate(-0, 26.492812, 166.661342)">80</text>
     </g>
    </g>
    <g id="ytick_2">
     <g id="line2d_13">
      <path d="M 33.492812 141.03827 
L 311.700812 141.03827 
" clip-path="url(#p1932db65c5)" style="fill: none; stroke: #d9dee3; stroke-opacity: 0.85; stroke-width: 0.6; stroke-linecap: square"/>
     </g>
     <g id="line2d_14">
      <g>
       <use xlink:href="#mfc4ee48b16" x="33.492812" y="141.03827" style="stroke: #000000; stroke-width: 0.8"/>
      </g>
     </g>
     <g id="text_8">
      <text style="font: 7px 'sans-serif'; text-anchor: end" x="26.492812" y="143.543505" transform="rotate(-0, 26.492812, 143.543505)">83</text>
     </g>
    </g>
    <g id="ytick_3">
     <g id="line2d_15">
      <path d="M 33.492812 117.920432 
L 311.700812 117.920432 
" clip-path="url(#p1932db65c5)" style="fill: none; stroke: #d9dee3; stroke-opacity: 0.85; stroke-width: 0.6; stroke-linecap: square"/>
     </g>
     <g id="line2d_16">
      <g>
       <use xlink:href="#mfc4ee48b16" x="33.492812" y="117.920432" style="stroke: #000000; stroke-width: 0.8"/>
      </g>
     </g>
     <g id="text_9">
      <text style="font: 7px 'sans-serif'; text-anchor: end" x="26.492812" y="120.425667" transform="rotate(-0, 26.492812, 120.425667)">86</text>
     </g>
    </g>
    <g id="ytick_4">
     <g id="line2d_17">
      <path d="M 33.492812 94.802595 
L 311.700812 94.802595 
" clip-path="url(#p1932db65c5)" style="fill: none; stroke: #d9dee3; stroke-opacity: 0.85; stroke-width: 0.6; stroke-linecap: square"/>
     </g>
     <g id="line2d_18">
      <g>
       <use xlink:href="#mfc4ee48b16" x="33.492812" y="94.802595" style="stroke: #000000; stroke-width: 0.8"/>
      </g>
     </g>
     <g id="text_10">
      <text style="font: 7px 'sans-serif'; text-anchor: end" x="26.492812" y="97.307829" transform="rotate(-0, 26.492812, 97.307829)">89</text>
     </g>
    </g>
    <g id="ytick_5">
     <g id="line2d_19">
      <path d="M 33.492812 71.684757 
L 311.700812 71.684757 
" clip-path="url(#p1932db65c5)" style="fill: none; stroke: #d9dee3; stroke-opacity: 0.85; stroke-width: 0.6; stroke-linecap: square"/>
     </g>
     <g id="line2d_20">
      <g>
       <use xlink:href="#mfc4ee48b16" x="33.492812" y="71.684757" style="stroke: #000000; stroke-width: 0.8"/>
      </g>
     </g>
     <g id="text_11">
      <text style="font: 7px 'sans-serif'; text-anchor: end" x="26.492812" y="74.189991" transform="rotate(-0, 26.492812, 74.189991)">92</text>
     </g>
    </g>
    <g id="ytick_6">
     <g id="line2d_21">
      <path d="M 33.492812 48.566919 
L 311.700812 48.566919 
" clip-path="url(#p1932db65c5)" style="fill: none; stroke: #d9dee3; stroke-opacity: 0.85; stroke-width: 0.6; stroke-linecap: square"/>
     </g>
     <g id="line2d_22">
      <g>
       <use xlink:href="#mfc4ee48b16" x="33.492812" y="48.566919" style="stroke: #000000; stroke-width: 0.8"/>
      </g>
     </g>
     <g id="text_12">
      <text style="font: 7px 'sans-serif'; text-anchor: end" x="26.492812" y="51.072153" transform="rotate(-0, 26.492812, 51.072153)">95</text>
     </g>
    </g>
    <g id="text_13">
     <text style="font: 8px 'sans-serif'; text-anchor: middle" x="13.02375" y="108.288" transform="rotate(-90, 13.02375, 108.288)">DeepShip accuracy (%)</text>
    </g>
   </g>
   <g id="patch_3">
    <path d="M 33.492812 179.568 
L 33.492812 37.008 
" style="fill: none; stroke: #000000; stroke-linejoin: miter; stroke-linecap: square"/>
   </g>
   <g id="patch_4">
    <path d="M 311.700812 179.568 
L 311.700812 37.008 
" style="fill: none; stroke: #000000; stroke-linejoin: miter; stroke-linecap: square"/>
   </g>
   <g id="patch_5">
    <path d="M 33.492812 179.568 
L 311.700812 179.568 
" style="fill: none; stroke: #000000; stroke-linejoin: miter; stroke-linecap: square"/>
   </g>
   <g id="patch_6">
    <path d="M 33.492812 37.008 
L 311.700812 37.008 
" style="fill: none; stroke: #000000; stroke-linejoin: miter; stroke-linecap: square"/>
   </g>
   <g id="PathCollection_1">
    <path d="M 217.875531 139.173454 
L 210.000077 154.924362 
L 225.750986 154.924362 
z
" clip-path="url(#p1932db65c5)" style="fill: #4e79a7; fill-opacity: 0.78"/>
   </g>
   <g id="PathCollection_2">
    <path d="M 251.069727 149.359026 
L 244.826245 161.84599 
L 257.313209 161.84599 
z
" clip-path="url(#p1932db65c5)" style="fill: #d17a22; fill-opacity: 0.78"/>
   </g>
   <g id="PathCollection_3">
    <path d="M 47.827238 91.420843 
L 42.827238 101.420843 
L 52.827238 101.420843 
z
" clip-path="url(#p1932db65c5)" style="fill: #59a14f; fill-opacity: 0.78"/>
   </g>
   <g id="PathCollection_4">
    <path d="M 47.356044 127.153543 
L 42.939359 129.703518 
L 42.939359 134.803466 
L 47.356044 137.353441 
L 51.772729 134.803466 
L 51.772729 129.703518 
z
" clip-path="url(#p1932db65c5)" style="fill: #d05a6e; fill-opacity: 0.78"/>
   </g>
   <g id="PathCollection_5">
    <path d="M 57.914276 144.510583 
L 52.579456 147.590643 
L 52.579456 153.750762 
L 57.914276 156.830822 
L 63.249096 153.750762 
L 63.249096 147.590643 
z
" clip-path="url(#p1932db65c5)" style="fill: #2a9d8f; fill-opacity: 0.78"/>
   </g>
   <g id="PathCollection_6">
    <path d="M 49.682682 128.935483 
L 44.94061 131.67332 
L 44.94061 137.148994 
L 49.682682 139.88683 
L 54.424754 137.148994 
L 54.424754 131.67332 
z
" clip-path="url(#p1932db65c5)" style="fill: #b07aa1; fill-opacity: 0.78"/>
   </g>
   <g id="PathCollection_7">
    <path d="M 47.722957 126.225027 
L 43.236243 128.815432 
L 43.236243 133.996243 
L 47.722957 136.586649 
L 52.209671 133.996243 
L 52.209671 128.815432 
z
" clip-path="url(#p1932db65c5)" style="fill: #a56a43; fill-opacity: 0.78"/>
   </g>
   <g id="text_14">
    <text style="font: 700 8px 'sans-serif'; text-anchor: middle" x="172.596812" y="32.008" transform="rotate(-0, 172.596812, 32.008)">Parameter efficiency vs accuracy</text>
   </g>
   <g id="PathCollection_8">
    <path d="M 270.987447 77.402497 
C 275.385343 77.402497 279.603704 75.655194 282.713486 72.545412 
C 285.823268 69.43563 287.570571 65.217269 287.570571 60.819373 
C 287.570571 56.421477 285.823268 52.203116 282.713486 49.093334 
C 279.603704 45.983552 275.385343 44.236249 270.987447 44.236249 
C 266.589551 44.236249 262.371189 45.983552 259.261407 49.093334 
C 256.151625 52.203116 254.404323 56.421477 254.404323 60.819373 
C 254.404323 65.217269 256.151625 69.43563 259.261407 72.545412 
C 262.371189 75.655194 266.589551 77.402497 270.987447 77.402497 
z
" clip-path="url(#p1932db65c5)" style="fill: #8064a2; fill-opacity: 0.92"/>
   </g>
   <g id="legend_1">
    <g id="text_15">
     <text style="font: 6.2px 'sans-serif'; text-anchor: start" x="141.925703" y="216.312244" transform="rotate(-0, 141.925703, 216.312244)">Bubble area: 1/FLOPs</text>
    </g>
    <g id="line2d_23">
     <defs>
      <path id="m9b0d62e7f9" d="M 0 3.1 
C 0.82213 3.1 1.610698 2.773364 2.192031 2.192031 
C 2.773364 1.610698 3.1 0.82213 3.1 0 
C 3.1 -0.82213 2.773364 -1.610698 2.192031 -2.192031 
C 1.610698 -2.773364 0.82213 -3.1 0 -3.1 
C -0.82213 -3.1 -1.610698 -2.773364 -2.192031 -2.192031 
C -2.773364 -1.610698 -3.1 -0.82213 -3.1 0 
C -3.1 0.82213 -2.773364 1.610698 -2.192031 2.192031 
C -1.610698 2.773364 -0.82213 3.1 0 3.1 
z
"/>
     </defs>
     <g>
      <use xlink:href="#m9b0d62e7f9" x="116.504922" y="222.566025" style="fill: #9aa7b4"/>
     </g>
    </g>
    <g id="text_16">
     <text style="font: 5.8px 'sans-serif'; text-anchor: start" x="126.654922" y="224.596025" transform="rotate(-0, 126.654922, 224.596025)">2.31e-04</text>
    </g>
    <g id="line2d_24">
     <defs>
      <path id="m38840ebe12" d="M 0 3.613331 
C 0.958267 3.613331 1.877414 3.232608 2.555011 2.555011 
C 3.232608 1.877414 3.613331 0.958267 3.613331 0 
C 3.613331 -0.958267 3.232608 -1.877414 2.555011 -2.555011 
C 1.877414 -3.232608 0.958267 -3.613331 0 -3.613331 
C -0.958267 -3.613331 -1.877414 -3.232608 -2.555011 -2.555011 
C -3.232608 -1.877414 -3.613331 -0.958267 -3.613331 0 
C -3.613331 0.958267 -3.232608 1.877414 -2.555011 2.555011 
C -1.877414 3.232608 -0.958267 3.613331 0 3.613331 
z
"/>
     </defs>
     <g>
      <use xlink:href="#m38840ebe12" x="159.699516" y="222.566025" style="fill: #9aa7b4"/>
     </g>
    </g>
    <g id="text_17">
     <text style="font: 5.8px 'sans-serif'; text-anchor: start" x="169.849516" y="224.596025" transform="rotate(-0, 169.849516, 224.596025)">8.31e-04</text>
    </g>
    <g id="line2d_25">
     <defs>
      <path id="m3433db35ed" d="M 0 10.281537 
C 2.726695 10.281537 5.34208 9.198209 7.270144 7.270144 
C 9.198209 5.34208 10.281537 2.726695 10.281537 0 
C 10.281537 -2.726695 9.198209 -5.34208 7.270144 -7.270144 
C 5.34208 -9.198209 2.726695 -10.281537 0 -10.281537 
C -2.726695 -10.281537 -5.34208 -9.198209 -7.270144 -7.270144 
C -9.198209 -5.34208 -10.281537 -2.726695 -10.281537 0 
C -10.281537 2.726695 -9.198209 5.34208 -7.270144 7.270144 
C -5.34208 9.198209 -2.726695 10.281537 0 10.281537 
z
"/>
     </defs>
     <g>
      <use xlink:href="#m3433db35ed" x="202.894109" y="222.566025" style="fill: #9aa7b4"/>
     </g>
    </g>
    <g id="text_18">
     <text style="font: 5.8px 'sans-serif'; text-anchor: start" x="213.044109" y="224.596025" transform="rotate(-0, 213.044109, 224.596025)">1.70e-02</text>
    </g>
   </g>
   <g id="legend_2">
    <g id="text_19">
     <text style="font: 6.2px 'sans-serif'; text-anchor: start" x="141.925703" y="216.312244" transform="rotate(-0, 141.925703, 216.312244)">Bubble area: 1/FLOPs</text>
    </g>
    <g id="line2d_26">
     <g>
      <use xlink:href="#m9b0d62e7f9" x="116.504922" y="222.566025" style="fill: #9aa7b4"/>
     </g>
    </g>
    <g id="text_20">
     <text style="font: 5.8px 'sans-serif'; text-anchor: start" x="126.654922" y="224.596025" transform="rotate(-0, 126.654922, 224.596025)">2.31e-04</text>
    </g>
    <g id="line2d_27">
     <g>
      <use xlink:href="#m38840ebe12" x="159.699516" y="222.566025" style="fill: #9aa7b4"/>
     </g>
    </g>
    <g id="text_21">
     <text style="font: 5.8px 'sans-serif'; text-anchor: start" x="169.849516" y="224.596025" transform="rotate(-0, 169.849516, 224.596025)">8.31e-04</text>
    </g>
    <g id="line2d_28">
     <g>
      <use xlink:href="#m3433db35ed" x="202.894109" y="222.566025" style="fill: #9aa7b4"/>
     </g>
    </g>
    <g id="text_22">
     <text style="font: 5.8px 'sans-serif'; text-anchor: start" x="213.044109" y="224.596025" transform="rotate(-0, 213.044109, 224.596025)">1.70e-02</text>
    </g>
   </g>
   <g id="patch_7">
    <path d="M 186.121679 125.718496 
Q 200.752406 135.546577 215.383133 145.374658 
" style="fill: none; stroke: #4e79a7; stroke-width: 0.65; stroke-linecap: round"/>
   </g>
   <g id="text_23">
    <text style="fill: #4e79a7; font: 600 6.2px 'sans-serif'; text-anchor: end" x="211.545932" y="121.29705" transform="rotate(-0, 211.545932, 121.29705)">UATC-DenseNet (82.22)</text>
   </g>
   <g id="patch_8">
    <path d="M 249.280999 137.991809 
Q 250.02361 145.303087 250.76622 152.614365 
" style="fill: none; stroke: #d17a22; stroke-width: 0.65; stroke-linecap: round"/>
   </g>
   <g id="text_24">
    <text style="fill: #d17a22; font: 600 6.2px 'sans-serif'; text-anchor: end" x="267.187532" y="132.70185" transform="rotate(-0, 267.187532, 132.70185)">1DCT (81.11)</text>
   </g>
   <g id="patch_9">
    <path d="M 71.095781 74.643955 
Q 60.556483 84.50762 50.017186 94.371285 
" style="fill: none; stroke: #59a14f; stroke-width: 0.65; stroke-linecap: round"/>
   </g>
   <g id="text_25">
    <text style="fill: #59a14f; font: 600 6.2px 'sans-serif'; text-anchor: start" x="55.749452" y="69.97545" transform="rotate(-0, 55.749452, 69.97545)">MSRDN (88.79)</text>
   </g>
   <g id="patch_10">
    <path d="M 264.761901 78.681192 
Q 267.381463 71.165361 270.001026 63.649529 
" style="fill: none; stroke: #8064a2; stroke-width: 0.65; stroke-linecap: round"/>
   </g>
   <g id="text_26">
    <text style="fill: #8064a2; font: 700 6.2px 'sans-serif'; text-anchor: start" x="233.802572" y="87.08265" transform="rotate(-0, 233.802572, 87.08265)">LNN (w/ KD) (93.41)</text>
   </g>
   <g id="patch_11">
    <path d="M 66.662351 114.55121 
Q 58.115681 122.387797 49.569011 130.224385 
" style="fill: none; stroke: #d05a6e; stroke-width: 0.65; stroke-linecap: round"/>
   </g>
   <g id="text_27">
    <text style="fill: #d05a6e; font: 600 6.2px 'sans-serif'; text-anchor: start" x="55.749452" y="109.89225" transform="rotate(-0, 55.749452, 109.89225)">ALSI (84.14)</text>
   </g>
   <g id="patch_12">
    <path d="M 76.805117 128.961174 
Q 68.34321 138.685675 59.881303 148.410177 
" style="fill: none; stroke: #2a9d8f; stroke-width: 0.65; stroke-linecap: round"/>
   </g>
   <g id="text_28">
    <text style="fill: #2a9d8f; font: 600 6.2px 'sans-serif'; text-anchor: start" x="55.749452" y="124.14825" transform="rotate(-0, 55.749452, 124.14825)">MHT-UATR (81.75)</text>
   </g>
   <g id="patch_13">
    <path d="M 72.944663 100.586521 
Q 62.163422 116.263241 51.382181 131.93996 
" style="fill: none; stroke: #b07aa1; stroke-width: 0.65; stroke-linecap: round"/>
   </g>
   <g id="text_29">
    <text style="fill: #b07aa1; font: 600 6.2px 'sans-serif'; text-anchor: start" x="55.749452" y="95.63625" transform="rotate(-0, 55.749452, 95.63625)">CAF-JT (83.86)</text>
   </g>
   <g id="patch_14">
    <path d="M 81.587551 86.282315 
Q 65.555402 107.644657 49.523254 129.006998 
" style="fill: none; stroke: #a56a43; stroke-width: 0.65; stroke-linecap: round"/>
   </g>
   <g id="text_30">
    <text style="fill: #a56a43; font: 600 6.2px 'sans-serif'; text-anchor: start" x="55.749452" y="81.38025" transform="rotate(-0, 55.749452, 81.38025)">T-F Token ViT (84.25)</text>
   </g>
  </g>
  <g id="text_31">
   <text style="font: 700 10px 'sans-serif'; text-anchor: middle" x="152.724812" y="14.479687" transform="rotate(-0, 152.724812, 14.479687)">DeepShip</text>
  </g>
  <g id="legend_3">
   <g id="patch_15">
    <path d="M 48.255086 255.374 
L 257.194539 255.374 
L 257.194539 234.251031 
L 48.255086 234.251031 
z
" style="fill: #ffffff; opacity: 0.96; stroke: #000000; stroke-width: 0.7; stroke-linejoin: miter"/>
   </g>
   <g id="text_32">
    <text style="font: 7px 'sans-serif'; text-anchor: start" x="123.993094" y="241.946812" transform="rotate(-0, 123.993094, 241.946812)">Model / Input Type</text>
   </g>
   <g id="line2d_29">
    <defs>
     <path id="mde48b7ecd6" d="M 0 3.5 
C 0.928211 3.5 1.81853 3.131218 2.474874 2.474874 
C 3.131218 1.81853 3.5 0.928211 3.5 0 
C 3.5 -0.928211 3.131218 -1.81853 2.474874 -2.474874 
C 1.81853 -3.131218 0.928211 -3.5 0 -3.5 
C -0.928211 -3.5 -1.81853 -3.131218 -2.474874 -2.474874 
C -3.131218 -1.81853 -3.5 -0.928211 -3.5 0 
C -3.5 0.928211 -3.131218 1.81853 -2.474874 2.474874 
C -1.81853 3.131218 -0.928211 3.5 0 3.5 
z
"/>
    </defs>
    <g>
     <use xlink:href="#mde48b7ecd6" x="57.355086" y="249.130953" style="fill: #74808c"/>
    </g>
   </g>
   <g id="text_33">
    <text style="font: 6.5px 'sans-serif'; text-anchor: start" x="67.105086" y="251.405953" transform="rotate(-0, 67.105086, 251.405953)">LNN (proposed, audio)</text>
   </g>
   <g id="line2d_30">
    <defs>
     <path id="me72ae61cc5" d="M 0 -3.5 
L -3.031089 -1.75 
L -3.031089 1.75 
L -0 3.5 
L 3.031089 1.75 
L 3.031089 -1.75 
z
"/>
    </defs>
    <g>
     <use xlink:href="#me72ae61cc5" x="145.85868" y="249.130953" style="fill: #74808c"/>
    </g>
   </g>
   <g id="text_34">
    <text style="font: 6.5px 'sans-serif'; text-anchor: start" x="155.60868" y="251.405953" transform="rotate(-0, 155.60868, 251.405953)">Mel input</text>
   </g>
   <g id="line2d_31">
    <defs>
     <path id="m581b0421b9" d="M 0 -3.5 
L -3.5 3.5 
L 3.5 3.5 
z
"/>
    </defs>
    <g>
     <use xlink:href="#m581b0421b9" x="194.981414" y="249.130953" style="fill: #74808c"/>
    </g>
   </g>
   <g id="text_35">
    <text style="font: 6.5px 'sans-serif'; text-anchor: start" x="204.731414" y="251.405953" transform="rotate(-0, 204.731414, 251.405953)">Other audio input</text>
   </g>
  </g>
 </g>
 <defs>
  <clipPath id="p1932db65c5">
   <rect x="33.492812" y="37.008" width="278.208" height="142.56"/>
  </clipPath>
 </defs>
</svg>
