<?xml version="1.0" encoding="utf-8" standalone="no"?>
<!DOCTYPE svg PUBLIC "-//W3C//DTD SVG 1.1//EN"
  "http://www.w3.org/Graphics/SVG/1.1/DTD/svg11.dtd">
<svg xmlns:xlink="http://www.w3.org/1999/xlink" width="508.558469pt" height="217.355184pt" viewBox="0 0 508.558469 217.355184" xmlns="http://www.w3.org/2000/svg" version="1.1">
 <metadata>
  <rdf:RDF xmlns:dc="http://purl.org/dc/elements/1.1/" xmlns:cc="http://creativecommons.org/ns#" xmlns:rdf="http://www.w3.org/1999/02/22-rdf-syntax-ns#">
   <cc:Work>
    <dc:type rdf:resource="http://purl.org/dc/dcmitype/StillImage"/>
    <dc:date>2026-07-15T22:52:43.590095</dc:date>
    <dc:format>image/svg+xml</dc:format>
    <dc:creator>
     <cc:Agent>
      <dc:title>Matplotlib v3.5.3, https://matplotlib.org/</dc:title>
     </cc:Agent>
    </dc:creator>
   </cc:Work>
  </rdf:RDF>
 </metadata>
 <defs>
  <style type="text/css">*{stroke-linejoin: round; stroke-linecap: butt}</style>
 </defs>
 <g id="figure_1">
  <g id="patch_1">
   <path d="M 0 217.355184 
L 508.558469 217.355184 
L 508.558469 0 
L 0 0 
z
" style="fill: #ffffff"/>
  </g>
  <g id="axes_1">
   <g id="patch_2">
    <path d="M 37.390469 185.245965 
L 255.215821 185.245965 
L 255.215821 21.949965 
L 37.390469 21.949965 
z
" style="fill: #ffffff"/>
   </g>
   <g id="matplotlib.axis_1">
    <g id="xtick_1">
     <g id="line2d_1">
      <path d="M 53.38634 185.245965 
L 53.38634 21.949965 
" clip-path="url(#p897614005b)" style="fill: none; stroke: #d9dee3; stroke-opacity: 0.85; stroke-width: 0.6; stroke-linecap: square"/>
     </g>
     <g id="line2d_2">
      <defs>
       <path id="m38db3dcea5" d="M 0 0 
L 0 3.5 
" style="stroke: #000000; stroke-width: 0.8"/>
      </defs>
      <g>
       <use xlink:href="#m38db3dcea5" x="53.38634" y="185.245965" style="stroke: #000000; stroke-width: 0.8"/>
      </g>
     </g>
     <g id="text_1">
      <text style="font: 7px 'sans-serif'; text-anchor: middle" x="53.38634" y="197.256434" transform="rotate(-0, 53.38634, 197.256434)">0.3</text>
     </g>
    </g>
    <g id="xtick_2">
     <g id="line2d_3">
      <path d="M 73.538755 185.245965 
L 73.538755 21.949965 
" clip-path="url(#p897614005b)" style="fill: none; stroke: #d9dee3; stroke-opacity: 0.85; stroke-width: 0.6; stroke-linecap: square"/>
     </g>
     <g id="line2d_4">
      <g>
       <use xlink:href="#m38db3dcea5" x="73.538755" y="185.245965" style="stroke: #000000; stroke-width: 0.8"/>
      </g>
     </g>
     <g id="text_2">
      <text style="font: 7px 'sans-serif'; text-anchor: middle" x="73.538755" y="197.256434" transform="rotate(-0, 73.538755, 197.256434)">0.5</text>
     </g>
    </g>
    <g id="xtick_3">
     <g id="line2d_5">
      <path d="M 100.883878 185.245965 
L 100.883878 21.949965 
" clip-path="url(#p897614005b)" style="fill: none; stroke: #d9dee3; stroke-opacity: 0.85; stroke-width: 0.6; stroke-linecap: square"/>
     </g>
     <g id="line2d_6">
      <g>
       <use xlink:href="#m38db3dcea5" x="100.883878" y="185.245965" style="stroke: #000000; stroke-width: 0.8"/>
      </g>
     </g>
     <g id="text_3">
      <text style="font: 7px 'sans-serif'; text-anchor: middle" x="100.883878" y="197.256434" transform="rotate(-0, 100.883878, 197.256434)">1</text>
     </g>
    </g>
    <g id="xtick_4">
     <g id="line2d_7">
      <path d="M 144.224873 185.245965 
L 144.224873 21.949965 
" clip-path="url(#p897614005b)" style="fill: none; stroke: #d9dee3; stroke-opacity: 0.85; stroke-width: 0.6; stroke-linecap: square"/>
     </g>
     <g id="line2d_8">
      <g>
       <use xlink:href="#m38db3dcea5" x="144.224873" y="185.245965" style="stroke: #000000; stroke-width: 0.8"/>
      </g>
     </g>
     <g id="text_4">
      <text style="font: 7px 'sans-serif'; text-anchor: middle" x="144.224873" y="197.256434" transform="rotate(-0, 144.224873, 197.256434)">3</text>
     </g>
    </g>
    <g id="xtick_5">
     <g id="line2d_9">
      <path d="M 191.722411 185.245965 
L 191.722411 21.949965 
" clip-path="url(#p897614005b)" style="fill: none; stroke: #d9dee3; stroke-opacity: 0.85; stroke-width: 0.6; stroke-linecap: square"/>
     </g>
     <g id="line2d_10">
      <g>
       <use xlink:href="#m38db3dcea5" x="191.722411" y="185.245965" style="stroke: #000000; stroke-width: 0.8"/>
      </g>
     </g>
     <g id="text_5">
      <text style="font: 7px 'sans-serif'; text-anchor: middle" x="191.722411" y="197.256434" transform="rotate(-0, 191.722411, 197.256434)">10</text>
     </g>
    </g>
    <g id="xtick_6">
     <g id="line2d_11">
      <path d="M 235.063406 185.245965 
L 235.063406 21.949965 
" clip-path="url(#p897614005b)" style="fill: none; stroke: #d9dee3; stroke-opacity: 0.85; stroke-width: 0.6; stroke-linecap: square"/>
     </g>
     <g id="line2d_12">
      <g>
       <use xlink:href="#m38db3dcea5" x="235.063406" y="185.245965" style="stroke: #000000; stroke-width: 0.8"/>
      </g>
     </g>
     <g id="text_6">
      <text style="font: 7px 'sans-serif'; text-anchor: middle" x="235.063406" y="197.256434" transform="rotate(-0, 235.063406, 197.256434)">30</text>
     </g>
    </g>
    <g id="xtick_7">
     <g id="line2d_13"/>
    </g>
    <g id="xtick_8">
     <g id="line2d_14"/>
    </g>
    <g id="xtick_9">
     <g id="line2d_15"/>
    </g>
    <g id="xtick_10">
     <g id="line2d_16"/>
    </g>
    <g id="xtick_11">
     <g id="line2d_17"/>
    </g>
    <g id="xtick_12">
     <g id="line2d_18"/>
    </g>
    <g id="xtick_13">
     <g id="line2d_19"/>
    </g>
    <g id="xtick_14">
     <g id="line2d_20"/>
    </g>
    <g id="xtick_15">
     <g id="line2d_21"/>
    </g>
    <g id="xtick_16">
     <g id="line2d_22"/>
    </g>
    <g id="xtick_17">
     <g id="line2d_23"/>
    </g>
    <g id="xtick_18">
     <g id="line2d_24"/>
    </g>
    <g id="xtick_19">
     <g id="line2d_25"/>
    </g>
    <g id="xtick_20">
     <g id="line2d_26"/>
    </g>
    <g id="xtick_21">
     <g id="line2d_27"/>
    </g>
    <g id="xtick_22">
     <g id="line2d_28"/>
    </g>
    <g id="text_7">
     <text style="font: 8px 'sans-serif'; text-anchor: middle" x="146.303145" y="208.471434" transform="rotate(-0, 146.303145, 208.471434)">Parameters (M, log scale)</text>
    </g>
   </g>
   <g id="matplotlib.axis_2">
    <g id="ytick_1">
     <g id="line2d_29">
      <path d="M 37.390469 169.138471 
L 255.215821 169.138471 
" clip-path="url(#p897614005b)" style="fill: none; stroke: #d9dee3; stroke-opacity: 0.85; stroke-width: 0.6; stroke-linecap: square"/>
     </g>
     <g id="line2d_30">
      <defs>
       <path id="m4f80558363" d="M 0 0 
L -3.5 0 
" style="stroke: #000000; stroke-width: 0.8"/>
      </defs>
      <g>
       <use xlink:href="#m4f80558363" x="37.390469" y="169.138471" style="stroke: #000000; stroke-width: 0.8"/>
      </g>
     </g>
     <g id="text_8">
      <text style="font: 7px 'sans-serif'; text-anchor: end" x="30.390469" y="171.643705" transform="rotate(-0, 30.390469, 171.643705)">50</text>
     </g>
    </g>
    <g id="ytick_2">
     <g id="line2d_31">
      <path d="M 37.390469 149.882678 
L 255.215821 149.882678 
" clip-path="url(#p897614005b)" style="fill: none; stroke: #d9dee3; stroke-opacity: 0.85; stroke-width: 0.6; stroke-linecap: square"/>
     </g>
     <g id="line2d_32">
      <g>
       <use xlink:href="#m4f80558363" x="37.390469" y="149.882678" style="stroke: #000000; stroke-width: 0.8"/>
      </g>
     </g>
     <g id="text_9">
      <text style="font: 7px 'sans-serif'; text-anchor: end" x="30.390469" y="152.387913" transform="rotate(-0, 30.390469, 152.387913)">100</text>
     </g>
    </g>
    <g id="ytick_3">
     <g id="line2d_33">
      <path d="M 37.390469 119.36297 
L 255.215821 119.36297 
" clip-path="url(#p897614005b)" style="fill: none; stroke: #d9dee3; stroke-opacity: 0.85; stroke-width: 0.6; stroke-linecap: square"/>
     </g>
     <g id="line2d_34">
      <g>
       <use xlink:href="#m4f80558363" x="37.390469" y="119.36297" style="stroke: #000000; stroke-width: 0.8"/>
      </g>
     </g>
     <g id="text_10">
      <text style="font: 7px 'sans-serif'; text-anchor: end" x="30.390469" y="121.868204" transform="rotate(-0, 30.390469, 121.868204)">300</text>
     </g>
    </g>
    <g id="ytick_4">
     <g id="line2d_35">
      <path d="M 37.390469 85.916322 
L 255.215821 85.916322 
" clip-path="url(#p897614005b)" style="fill: none; stroke: #d9dee3; stroke-opacity: 0.85; stroke-width: 0.6; stroke-linecap: square"/>
     </g>
     <g id="line2d_36">
      <g>
       <use xlink:href="#m4f80558363" x="37.390469" y="85.916322" style="stroke: #000000; stroke-width: 0.8"/>
      </g>
     </g>
     <g id="text_11">
      <text style="font: 7px 'sans-serif'; text-anchor: end" x="30.390469" y="88.421556" transform="rotate(-0, 30.390469, 88.421556)">1k</text>
     </g>
    </g>
    <g id="ytick_5">
     <g id="line2d_37">
      <path d="M 37.390469 55.396613 
L 255.215821 55.396613 
" clip-path="url(#p897614005b)" style="fill: none; stroke: #d9dee3; stroke-opacity: 0.85; stroke-width: 0.6; stroke-linecap: square"/>
     </g>
     <g id="line2d_38">
      <g>
       <use xlink:href="#m4f80558363" x="37.390469" y="55.396613" style="stroke: #000000; stroke-width: 0.8"/>
      </g>
     </g>
     <g id="text_12">
      <text style="font: 7px 'sans-serif'; text-anchor: end" x="30.390469" y="57.901848" transform="rotate(-0, 30.390469, 57.901848)">3k</text>
     </g>
    </g>
    <g id="ytick_6">
     <g id="line2d_39"/>
    </g>
    <g id="ytick_7">
     <g id="line2d_40"/>
    </g>
    <g id="ytick_8">
     <g id="line2d_41"/>
    </g>
    <g id="ytick_9">
     <g id="line2d_42"/>
    </g>
    <g id="ytick_10">
     <g id="line2d_43"/>
    </g>
    <g id="ytick_11">
     <g id="line2d_44"/>
    </g>
    <g id="ytick_12">
     <g id="line2d_45"/>
    </g>
    <g id="ytick_13">
     <g id="line2d_46"/>
    </g>
    <g id="ytick_14">
     <g id="line2d_47"/>
    </g>
    <g id="ytick_15">
     <g id="line2d_48"/>
    </g>
    <g id="ytick_16">
     <g id="line2d_49"/>
    </g>
    <g id="ytick_17">
     <g id="line2d_50"/>
    </g>
    <g id="ytick_18">
     <g id="line2d_51"/>
    </g>
    <g id="ytick_19">
     <g id="line2d_52"/>
    </g>
    <g id="ytick_20">
     <g id="line2d_53"/>
    </g>
    <g id="ytick_21">
     <g id="line2d_54"/>
    </g>
    <g id="ytick_22">
     <g id="line2d_55"/>
    </g>
    <g id="ytick_23">
     <g id="line2d_56"/>
    </g>
    <g id="ytick_24">
     <g id="line2d_57"/>
    </g>
    <g id="ytick_25">
     <g id="line2d_58"/>
    </g>
    <g id="text_13">
     <text style="font: 8px 'sans-serif'; text-anchor: middle" x="13.02875" y="103.597965" transform="rotate(-90, 13.02875, 103.597965)">FLOPs (MFLOPs, log scale)</text>
    </g>
   </g>
   <g id="patch_3">
    <path d="M 37.390469 185.245965 
L 37.390469 21.949965 
" style="fill: none; stroke: #000000; stroke-linejoin: miter; stroke-linecap: square"/>
   </g>
   <g id="patch_4">
    <path d="M 255.215821 185.245965 
L 255.215821 21.949965 
" style="fill: none; stroke: #000000; stroke-linejoin: miter; stroke-linecap: square"/>
   </g>
   <g id="patch_5">
    <path d="M 37.390469 185.245965 
L 255.215821 185.245965 
" style="fill: none; stroke: #000000; stroke-linejoin: miter; stroke-linecap: square"/>
   </g>
   <g id="patch_6">
    <path d="M 37.390469 21.949965 
L 255.215821 21.949965 
" style="fill: none; stroke: #000000; stroke-linejoin: miter; stroke-linecap: square"/>
   </g>
   <g id="PathCollection_1">
    <path d="M 66.490959 106.124092 
L 60.01987 109.860177 
L 60.01987 117.332348 
L 66.490959 121.068433 
L 72.962049 117.332348 
L 72.962049 109.860177 
z
" clip-path="url(#p897614005b)" style="fill: #4e79a7; fill-opacity: 0.8"/>
   </g>
   <g id="PathCollection_2">
    <path d="M 59.569003 83.846208 
L 54.063324 87.024913 
L 54.063324 93.382324 
L 59.569003 96.561029 
L 65.074682 93.382324 
L 65.074682 87.024913 
z
" clip-path="url(#p897614005b)" style="fill: #d17a22; fill-opacity: 0.8"/>
   </g>
   <g id="PathCollection_3">
    <path d="M 226.138085 33.137342 
L 215.63511 39.201238 
L 215.63511 51.32903 
L 226.138085 57.392926 
L 236.641061 51.32903 
L 236.641061 39.201238 
z
" clip-path="url(#p897614005b)" style="fill: #59a14f; fill-opacity: 0.8"/>
   </g>
   <g id="PathCollection_4">
    <path d="M 55.932428 150.020128 
L 43.345233 157.287349 
L 43.345233 171.82179 
L 55.932428 179.089011 
L 68.519624 171.82179 
L 68.519624 157.287349 
z
" clip-path="url(#p897614005b)" style="fill: #8064a2; fill-opacity: 0.8"/>
   </g>
   <g id="PathCollection_5">
    <path d="M 232.817749 61.460547 
C 235.226576 61.460547 237.537068 60.50351 239.240366 58.800212 
C 240.943663 57.096914 241.900701 54.786423 241.900701 52.377596 
C 241.900701 49.968769 240.943663 47.658277 239.240366 45.954979 
C 237.537068 44.251682 235.226576 43.294645 232.817749 43.294645 
C 230.408923 43.294645 228.098431 44.251682 226.395133 45.954979 
C 224.691835 47.658277 223.734798 49.968769 223.734798 52.377596 
C 223.734798 54.786423 224.691835 57.096914 226.395133 58.800212 
C 228.098431 60.50351 230.408923 61.460547 232.817749 61.460547 
z
" clip-path="url(#p897614005b)" style="fill: #d05a6e; fill-opacity: 0.8"/>
   </g>
   <g id="PathCollection_6">
    <path d="M 168.280536 95.527575 
C 170.142737 95.527575 171.928917 94.787715 173.245692 93.47094 
C 174.562467 92.154165 175.302327 90.367985 175.302327 88.505784 
C 175.302327 86.643583 174.562467 84.857402 173.245692 83.540627 
C 171.928917 82.223852 170.142737 81.483992 168.280536 81.483992 
C 166.418335 81.483992 164.632154 82.223852 163.315379 83.540627 
C 161.998604 84.857402 161.258744 86.643583 161.258744 88.505784 
C 161.258744 90.367985 161.998604 92.154165 163.315379 93.47094 
C 164.632154 94.787715 166.418335 95.527575 168.280536 95.527575 
z
" clip-path="url(#p897614005b)" style="fill: #2a9d8f; fill-opacity: 0.8"/>
   </g>
   <g id="PathCollection_7">
    <path d="M 207.268622 78.915016 
C 209.61999 78.915016 211.875368 77.980808 213.538037 76.31814 
C 215.200705 74.655472 216.134913 72.400093 216.134913 70.048726 
C 216.134913 67.697358 215.200705 65.441979 213.538037 63.779311 
C 211.875368 62.116643 209.61999 61.182435 207.268622 61.182435 
C 204.917254 61.182435 202.661876 62.116643 200.999208 63.779311 
C 199.33654 65.441979 198.402332 67.697358 198.402332 70.048726 
C 198.402332 72.400093 199.33654 74.655472 200.999208 76.31814 
C 202.661876 77.980808 204.917254 78.915016 207.268622 78.915016 
z
" clip-path="url(#p897614005b)" style="fill: #b07aa1; fill-opacity: 0.8"/>
   </g>
   <g id="PathCollection_8">
    <path d="M 227.521995 66.283573 
C 229.953024 66.283573 232.284811 65.317715 234.003807 63.598718 
C 235.722804 61.879721 236.688662 59.547934 236.688662 57.116906 
C 236.688662 54.685877 235.722804 52.35409 234.003807 50.635094 
C 232.284811 48.916097 229.953024 47.950239 227.521995 47.950239 
C 225.090967 47.950239 222.75918 48.916097 221.040183 50.635094 
C 219.321186 52.35409 218.355329 54.685877 218.355329 57.116906 
C 218.355329 59.547934 219.321186 61.879721 221.040183 63.598718 
C 222.75918 65.317715 225.090967 66.283573 227.521995 66.283573 
z
" clip-path="url(#p897614005b)" style="fill: #a56a43; fill-opacity: 0.8"/>
   </g>
   <g id="text_14">
    <text style="font: 700 9px 'sans-serif'; text-anchor: start" x="9.073173" y="13.642031" transform="rotate(-0, 9.073173, 13.642031)">a</text>
   </g>
   <g id="text_15">
    <text style="font: 700 8px 'sans-serif'; text-anchor: middle" x="146.303145" y="16.949965" transform="rotate(-0, 146.303145, 16.949965)">DeepShip</text>
   </g>
   <g id="patch_7">
    <path d="M 75.493774 114.374295 
Q 72.484777 114.114254 69.475779 113.854214 
" style="fill: none; stroke: #4e79a7; stroke-width: 0.7; stroke-linecap: round"/>
   </g>
   <g id="text_16">
    <text style="fill: #4e79a7; font: 600 6px 'sans-serif'; text-anchor: start" x="79.490959" y="119.148762" transform="rotate(-0, 79.490959, 119.148762)">UATC-DenseNet (82.22)</text>
   </g>
   <g id="patch_8">
    <path d="M 68.597538 88.747711 
Q 65.56231 89.237161 62.527082 89.72661 
" style="fill: none; stroke: #d17a22; stroke-width: 0.7; stroke-linecap: round"/>
   </g>
   <g id="text_17">
    <text style="fill: #d17a22; font: 600 6px 'sans-serif'; text-anchor: start" x="72.569003" y="86.756119" transform="rotate(-0, 72.569003, 86.756119)">1DCT (81.11)</text>
   </g>
   <g id="patch_9">
    <path d="M 170.122003 38.378264 
Q 196.641091 41.63864 223.16018 44.899017 
" style="fill: none; stroke: #59a14f; stroke-width: 0.7; stroke-linecap: round"/>
   </g>
   <g id="text_18">
    <text style="fill: #59a14f; font: 600 6px 'sans-serif'; text-anchor: end" x="166.138085" y="36.817634" transform="rotate(-0, 166.138085, 36.817634)">MSRDN (88.79)</text>
   </g>
   <g id="patch_10">
    <path d="M 80.934013 164.55457 
Q 69.933255 164.55457 58.932497 164.55457 
" style="fill: none; stroke: #8064a2; stroke-width: 0.7; stroke-linecap: round"/>
   </g>
   <g id="text_19">
    <text style="fill: #8064a2; font: 600 6px 'sans-serif'; text-anchor: start" x="84.932428" y="166.10707" transform="rotate(-0, 84.932428, 166.10707)">LNN (w/ KD) (93.41)</text>
   </g>
   <g id="patch_11">
    <path d="M 219.419536 43.31301 
Q 224.87728 47.005457 230.335024 50.697903 
" style="fill: none; stroke: #d05a6e; stroke-width: 0.7; stroke-linecap: round"/>
   </g>
   <g id="text_20">
    <text style="fill: #d05a6e; font: 600 6px 'sans-serif'; text-anchor: end" x="227.817749" y="38.930096" transform="rotate(-0, 227.817749, 38.930096)">ALSI (84.14)</text>
   </g>
   <g id="patch_12">
    <path d="M 188.307283 91.724204 
Q 179.772936 90.352682 171.238588 88.981161 
" style="fill: none; stroke: #2a9d8f; stroke-width: 0.7; stroke-linecap: round"/>
   </g>
   <g id="text_21">
    <text style="fill: #2a9d8f; font: 600 6px 'sans-serif'; text-anchor: start" x="192.280536" y="98.058284" transform="rotate(-0, 192.280536, 98.058284)">MHT-UATR (81.75)</text>
   </g>
   <g id="patch_13">
    <path d="M 179.727961 58.63021 
Q 192.111509 63.7645 204.495057 68.89879 
" style="fill: none; stroke: #b07aa1; stroke-width: 0.7; stroke-linecap: round"/>
   </g>
   <g id="text_22">
    <text style="fill: #b07aa1; font: 600 6px 'sans-serif'; text-anchor: end" x="187.268622" y="54.601226" transform="rotate(-0, 187.268622, 54.601226)">CAF-JT (83.86)</text>
   </g>
   <g id="patch_14">
    <path d="M 193.365996 95.80354 
Q 209.450628 77.585356 225.53526 59.367172 
" style="fill: none; stroke: #a56a43; stroke-width: 0.7; stroke-linecap: round"/>
   </g>
   <g id="text_23">
    <text style="fill: #a56a43; font: 600 6px 'sans-serif'; text-anchor: end" x="217.521995" y="103.669406" transform="rotate(-0, 217.521995, 103.669406)">T-F Token ViT (84.25)</text>
   </g>
   <g id="legend_1">
    <g id="patch_15">
     <path d="M 191.854024 181.995965 
L 251.965821 181.995965 
L 251.965821 149.247137 
L 191.854024 149.247137 
z
" style="fill: #ffffff; opacity: 0.95; stroke: #000000; stroke-width: 0.7; stroke-linejoin: miter"/>
    </g>
    <g id="text_24">
     <text style="font: 7px 'sans-serif'; text-anchor: start" x="205.627266" y="158.157606" transform="rotate(-0, 205.627266, 158.157606)">Input Type</text>
    </g>
    <g id="line2d_59">
     <defs>
      <path id="m1ccfc22ed6" d="M 0 3.5 
C 0.928211 3.5 1.81853 3.131218 2.474874 2.474874 
C 3.131218 1.81853 3.5 0.928211 3.5 0 
C 3.5 -0.928211 3.131218 -1.81853 2.474874 -2.474874 
C 1.81853 -3.131218 0.928211 -3.5 0 -3.5 
C -0.928211 -3.5 -1.81853 -3.131218 -2.474874 -2.474874 
C -3.131218 -1.81853 -3.5 -0.928211 -3.5 0 
C -3.5 0.928211 -3.131218 1.81853 -2.474874 2.474874 
C -1.81853 3.131218 -0.928211 3.5 0 3.5 
z
"/>
     </defs>
     <g>
      <use xlink:href="#m1ccfc22ed6" x="202.254024" y="165.258465" style="fill: #74808c"/>
     </g>
    </g>
    <g id="text_25">
     <text style="font: 6.5px 'sans-serif'; text-anchor: start" x="212.654024" y="167.533465" transform="rotate(-0, 212.654024, 167.533465)">Mel</text>
    </g>
    <g id="line2d_60">
     <defs>
      <path id="mac6bf04ec4" d="M 0 -3.5 
L -3.031089 -1.75 
L -3.031089 1.75 
L -0 3.5 
L 3.031089 1.75 
L 3.031089 -1.75 
z
"/>
     </defs>
     <g>
      <use xlink:href="#mac6bf04ec4" x="202.254024" y="174.452918" style="fill: #74808c"/>
     </g>
    </g>
    <g id="text_26">
     <text style="font: 6.5px 'sans-serif'; text-anchor: start" x="212.654024" y="176.727918" transform="rotate(-0, 212.654024, 176.727918)">Audio signal</text>
    </g>
   </g>
  </g>
  <g id="axes_2">
   <g id="patch_16">
    <path d="M 283.533117 185.245965 
L 501.358469 185.245965 
L 501.358469 21.949965 
L 283.533117 21.949965 
z
" style="fill: #ffffff"/>
   </g>
   <g id="matplotlib.axis_3">
    <g id="xtick_23">
     <g id="line2d_61">
      <path d="M 299.528988 185.245965 
L 299.528988 21.949965 
" clip-path="url(#p15e8e75094)" style="fill: none; stroke: #d9dee3; stroke-opacity: 0.85; stroke-width: 0.6; stroke-linecap: square"/>
     </g>
     <g id="line2d_62">
      <g>
       <use xlink:href="#m38db3dcea5" x="299.528988" y="185.245965" style="stroke: #000000; stroke-width: 0.8"/>
      </g>
     </g>
     <g id="text_27">
      <text style="font: 7px 'sans-serif'; text-anchor: middle" x="299.528988" y="197.256434" transform="rotate(-0, 299.528988, 197.256434)">0.3</text>
     </g>
    </g>
    <g id="xtick_24">
     <g id="line2d_63">
      <path d="M 319.681403 185.245965 
L 319.681403 21.949965 
" clip-path="url(#p15e8e75094)" style="fill: none; stroke: #d9dee3; stroke-opacity: 0.85; stroke-width: 0.6; stroke-linecap: square"/>
     </g>
     <g id="line2d_64">
      <g>
       <use xlink:href="#m38db3dcea5" x="319.681403" y="185.245965" style="stroke: #000000; stroke-width: 0.8"/>
      </g>
     </g>
     <g id="text_28">
      <text style="font: 7px 'sans-serif'; text-anchor: middle" x="319.681403" y="197.256434" transform="rotate(-0, 319.681403, 197.256434)">0.5</text>
     </g>
    </g>
    <g id="xtick_25">
     <g id="line2d_65">
      <path d="M 347.026526 185.245965 
L 347.026526 21.949965 
" clip-path="url(#p15e8e75094)" style="fill: none; stroke: #d9dee3; stroke-opacity: 0.85; stroke-width: 0.6; stroke-linecap: square"/>
     </g>
     <g id="line2d_66">
      <g>
       <use xlink:href="#m38db3dcea5" x="347.026526" y="185.245965" style="stroke: #000000; stroke-width: 0.8"/>
      </g>
     </g>
     <g id="text_29">
      <text style="font: 7px 'sans-serif'; text-anchor: middle" x="347.026526" y="197.256434" transform="rotate(-0, 347.026526, 197.256434)">1</text>
     </g>
    </g>
    <g id="xtick_26">
     <g id="line2d_67">
      <path d="M 390.367521 185.245965 
L 390.367521 21.949965 
" clip-path="url(#p15e8e75094)" style="fill: none; stroke: #d9dee3; stroke-opacity: 0.85; stroke-width: 0.6; stroke-linecap: square"/>
     </g>
     <g id="line2d_68">
      <g>
       <use xlink:href="#m38db3dcea5" x="390.367521" y="185.245965" style="stroke: #000000; stroke-width: 0.8"/>
      </g>
     </g>
     <g id="text_30">
      <text style="font: 7px 'sans-serif'; text-anchor: middle" x="390.367521" y="197.256434" transform="rotate(-0, 390.367521, 197.256434)">3</text>
     </g>
    </g>
    <g id="xtick_27">
     <g id="line2d_69">
      <path d="M 437.865059 185.245965 
L 437.865059 21.949965 
" clip-path="url(#p15e8e75094)" style="fill: none; stroke: #d9dee3; stroke-opacity: 0.85; stroke-width: 0.6; stroke-linecap: square"/>
     </g>
     <g id="line2d_70">
      <g>
       <use xlink:href="#m38db3dcea5" x="437.865059" y="185.245965" style="stroke: #000000; stroke-width: 0.8"/>
      </g>
     </g>
     <g id="text_31">
      <text style="font: 7px 'sans-serif'; text-anchor: middle" x="437.865059" y="197.256434" transform="rotate(-0, 437.865059, 197.256434)">10</text>
     </g>
    </g>
    <g id="xtick_28">
     <g id="line2d_71">
      <path d="M 481.206054 185.245965 
L 481.206054 21.949965 
" clip-path="url(#p15e8e75094)" style="fill: none; stroke: #d9dee3; stroke-opacity: 0.85; stroke-width: 0.6; stroke-linecap: square"/>
     </g>
     <g id="line2d_72">
      <g>
       <use xlink:href="#m38db3dcea5" x="481.206054" y="185.245965" style="stroke: #000000; stroke-width: 0.8"/>
      </g>
     </g>
     <g id="text_32">
      <text style="font: 7px 'sans-serif'; text-anchor: middle" x="481.206054" y="197.256434" transform="rotate(-0, 481.206054, 197.256434)">30</text>
     </g>
    </g>
    <g id="xtick_29">
     <g id="line2d_73"/>
    </g>
    <g id="xtick_30">
     <g id="line2d_74"/>
    </g>
    <g id="xtick_31">
     <g id="line2d_75"/>
    </g>
    <g id="xtick_32">
     <g id="line2d_76"/>
    </g>
    <g id="xtick_33">
     <g id="line2d_77"/>
    </g>
    <g id="xtick_34">
     <g id="line2d_78"/>
    </g>
    <g id="xtick_35">
     <g id="line2d_79"/>
    </g>
    <g id="xtick_36">
     <g id="line2d_80"/>
    </g>
    <g id="xtick_37">
     <g id="line2d_81"/>
    </g>
    <g id="xtick_38">
     <g id="line2d_82"/>
    </g>
    <g id="xtick_39">
     <g id="line2d_83"/>
    </g>
    <g id="xtick_40">
     <g id="line2d_84"/>
    </g>
    <g id="xtick_41">
     <g id="line2d_85"/>
    </g>
    <g id="xtick_42">
     <g id="line2d_86"/>
    </g>
    <g id="xtick_43">
     <g id="line2d_87"/>
    </g>
    <g id="xtick_44">
     <g id="line2d_88"/>
    </g>
    <g id="text_33">
     <text style="font: 8px 'sans-serif'; text-anchor: middle" x="392.445793" y="208.471434" transform="rotate(-0, 392.445793, 208.471434)">Parameters (M, log scale)</text>
    </g>
   </g>
   <g id="matplotlib.axis_4">
    <g id="ytick_26">
     <g id="line2d_89">
      <path d="M 283.533117 169.138471 
L 501.358469 169.138471 
" clip-path="url(#p15e8e75094)" style="fill: none; stroke: #d9dee3; stroke-opacity: 0.85; stroke-width: 0.6; stroke-linecap: square"/>
     </g>
     <g id="line2d_90">
      <g>
       <use xlink:href="#m4f80558363" x="283.533117" y="169.138471" style="stroke: #000000; stroke-width: 0.8"/>
      </g>
     </g>
    </g>
    <g id="ytick_27">
     <g id="line2d_91">
      <path d="M 283.533117 149.882678 
L 501.358469 149.882678 
" clip-path="url(#p15e8e75094)" style="fill: none; stroke: #d9dee3; stroke-opacity: 0.85; stroke-width: 0.6; stroke-linecap: square"/>
     </g>
     <g id="line2d_92">
      <g>
       <use xlink:href="#m4f80558363" x="283.533117" y="149.882678" style="stroke: #000000; stroke-width: 0.8"/>
      </g>
     </g>
    </g>
    <g id="ytick_28">
     <g id="line2d_93">
      <path d="M 283.533117 119.36297 
L 501.358469 119.36297 
" clip-path="url(#p15e8e75094)" style="fill: none; stroke: #d9dee3; stroke-opacity: 0.85; stroke-width: 0.6; stroke-linecap: square"/>
     </g>
     <g id="line2d_94">
      <g>
       <use xlink:href="#m4f80558363" x="283.533117" y="119.36297" style="stroke: #000000; stroke-width: 0.8"/>
      </g>
     </g>
    </g>
    <g id="ytick_29">
     <g id="line2d_95">
      <path d="M 283.533117 85.916322 
L 501.358469 85.916322 
" clip-path="url(#p15e8e75094)" style="fill: none; stroke: #d9dee3; stroke-opacity: 0.85; stroke-width: 0.6; stroke-linecap: square"/>
     </g>
     <g id="line2d_96">
      <g>
       <use xlink:href="#m4f80558363" x="283.533117" y="85.916322" style="stroke: #000000; stroke-width: 0.8"/>
      </g>
     </g>
    </g>
    <g id="ytick_30">
     <g id="line2d_97">
      <path d="M 283.533117 55.396613 
L 501.358469 55.396613 
" clip-path="url(#p15e8e75094)" style="fill: none; stroke: #d9dee3; stroke-opacity: 0.85; stroke-width: 0.6; stroke-linecap: square"/>
     </g>
     <g id="line2d_98">
      <g>
       <use xlink:href="#m4f80558363" x="283.533117" y="55.396613" style="stroke: #000000; stroke-width: 0.8"/>
      </g>
     </g>
    </g>
    <g id="ytick_31">
     <g id="line2d_99"/>
    </g>
    <g id="ytick_32">
     <g id="line2d_100"/>
    </g>
    <g id="ytick_33">
     <g id="line2d_101"/>
    </g>
    <g id="ytick_34">
     <g id="line2d_102"/>
    </g>
    <g id="ytick_35">
     <g id="line2d_103"/>
    </g>
    <g id="ytick_36">
     <g id="line2d_104"/>
    </g>
    <g id="ytick_37">
     <g id="line2d_105"/>
    </g>
    <g id="ytick_38">
     <g id="line2d_106"/>
    </g>
    <g id="ytick_39">
     <g id="line2d_107"/>
    </g>
    <g id="ytick_40">
     <g id="line2d_108"/>
    </g>
    <g id="ytick_41">
     <g id="line2d_109"/>
    </g>
    <g id="ytick_42">
     <g id="line2d_110"/>
    </g>
    <g id="ytick_43">
     <g id="line2d_111"/>
    </g>
    <g id="ytick_44">
     <g id="line2d_112"/>
    </g>
    <g id="ytick_45">
     <g id="line2d_113"/>
    </g>
    <g id="ytick_46">
     <g id="line2d_114"/>
    </g>
    <g id="ytick_47">
     <g id="line2d_115"/>
    </g>
    <g id="ytick_48">
     <g id="line2d_116"/>
    </g>
    <g id="ytick_49">
     <g id="line2d_117"/>
    </g>
    <g id="ytick_50">
     <g id="line2d_118"/>
    </g>
   </g>
   <g id="patch_17">
    <path d="M 283.533117 185.245965 
L 283.533117 21.949965 
" style="fill: none; stroke: #000000; stroke-linejoin: miter; stroke-linecap: square"/>
   </g>
   <g id="patch_18">
    <path d="M 501.358469 185.245965 
L 501.358469 21.949965 
" style="fill: none; stroke: #000000; stroke-linejoin: miter; stroke-linecap: square"/>
   </g>
   <g id="patch_19">
    <path d="M 283.533117 185.245965 
L 501.358469 185.245965 
" style="fill: none; stroke: #000000; stroke-linejoin: miter; stroke-linecap: square"/>
   </g>
   <g id="patch_20">
    <path d="M 283.533117 21.949965 
L 501.358469 21.949965 
" style="fill: none; stroke: #000000; stroke-linejoin: miter; stroke-linecap: square"/>
   </g>
   <g id="PathCollection_9">
    <path d="M 312.633607 105.171761 
L 305.337775 109.384012 
L 305.337775 117.808513 
L 312.633607 122.020764 
L 319.929439 117.808513 
L 319.929439 109.384012 
z
" clip-path="url(#p15e8e75094)" style="fill: #4e79a7; fill-opacity: 0.8"/>
   </g>
   <g id="PathCollection_10">
    <path d="M 305.711651 81.036952 
L 297.773085 85.620285 
L 297.773085 94.786952 
L 305.711651 99.370285 
L 313.650217 94.786952 
L 313.650217 85.620285 
z
" clip-path="url(#p15e8e75094)" style="fill: #d17a22; fill-opacity: 0.8"/>
   </g>
   <g id="PathCollection_11">
    <path d="M 472.280733 30.966727 
L 459.897949 38.115931 
L 459.897949 52.414338 
L 472.280733 59.563541 
L 484.663517 52.414338 
L 484.663517 38.115931 
z
" clip-path="url(#p15e8e75094)" style="fill: #59a14f; fill-opacity: 0.8"/>
   </g>
   <g id="PathCollection_12">
    <path d="M 302.075076 150.515932 
L 289.91726 157.535251 
L 289.91726 171.573888 
L 302.075076 178.593207 
L 314.232893 171.573888 
L 314.232893 157.535251 
z
" clip-path="url(#p15e8e75094)" style="fill: #8064a2; fill-opacity: 0.8"/>
   </g>
   <g id="PathCollection_13">
    <path d="M 478.960397 68.914591 
C 483.34606 68.914591 487.552687 67.172149 490.653819 64.071017 
C 493.754951 60.969886 495.497393 56.763258 495.497393 52.377596 
C 495.497393 47.991933 493.754951 43.785306 490.653819 40.684174 
C 487.552687 37.583042 483.34606 35.8406 478.960397 35.8406 
C 474.574735 35.8406 470.368107 37.583042 467.266976 40.684174 
C 464.165844 43.785306 462.423402 47.991933 462.423402 52.377596 
C 462.423402 56.763258 464.165844 60.969886 467.266976 64.071017 
C 470.368107 67.172149 474.574735 68.914591 478.960397 68.914591 
z
" clip-path="url(#p15e8e75094)" style="fill: #d05a6e; fill-opacity: 0.8"/>
   </g>
   <g id="PathCollection_14">
    <path d="M 414.423184 104.295196 
C 418.610585 104.295196 422.627045 102.631524 425.587984 99.670584 
C 428.548924 96.709645 430.212596 92.693185 430.212596 88.505784 
C 430.212596 84.318382 428.548924 80.301923 425.587984 77.340983 
C 422.627045 74.380043 418.610585 72.716371 414.423184 72.716371 
C 410.235782 72.716371 406.219322 74.380043 403.258383 77.340983 
C 400.297443 80.301923 398.633771 84.318382 398.633771 88.505784 
C 398.633771 92.693185 400.297443 96.709645 403.258383 99.670584 
C 406.219322 102.631524 410.235782 104.295196 414.423184 104.295196 
z
" clip-path="url(#p15e8e75094)" style="fill: #2a9d8f; fill-opacity: 0.8"/>
   </g>
   <g id="PathCollection_15">
    <path d="M 453.41127 86.484628 
C 457.770122 86.484628 461.951034 84.752838 465.033208 81.670664 
C 468.115382 78.58849 469.847173 74.407578 469.847173 70.048726 
C 469.847173 65.689873 468.115382 61.508962 465.033208 58.426788 
C 461.951034 55.344614 457.770122 53.612823 453.41127 53.612823 
C 449.052418 53.612823 444.871506 55.344614 441.789332 58.426788 
C 438.707158 61.508962 436.975368 65.689873 436.975368 70.048726 
C 436.975368 74.407578 438.707158 78.58849 441.789332 81.670664 
C 444.871506 84.752838 449.052418 86.484628 453.41127 86.484628 
z
" clip-path="url(#p15e8e75094)" style="fill: #b07aa1; fill-opacity: 0.8"/>
   </g>
   <g id="PathCollection_16">
    <path d="M 473.664643 73.762726 
C 478.079166 73.762726 482.313476 72.008817 485.435016 68.887278 
C 488.556555 65.765739 490.310463 61.531429 490.310463 57.116906 
C 490.310463 52.702383 488.556555 48.468073 485.435016 45.346533 
C 482.313476 42.224994 478.079166 40.471086 473.664643 40.471086 
C 469.25012 40.471086 465.01581 42.224994 461.894271 45.346533 
C 458.772731 48.468073 457.018823 52.702383 457.018823 57.116906 
C 457.018823 61.531429 458.772731 65.765739 461.894271 68.887278 
C 465.01581 72.008817 469.25012 73.762726 473.664643 73.762726 
z
" clip-path="url(#p15e8e75094)" style="fill: #a56a43; fill-opacity: 0.8"/>
   </g>
   <g id="text_34">
    <text style="font: 700 9px 'sans-serif'; text-anchor: start" x="255.215821" y="13.642031" transform="rotate(-0, 255.215821, 13.642031)">b</text>
   </g>
   <g id="text_35">
    <text style="font: 700 8px 'sans-serif'; text-anchor: middle" x="392.445793" y="16.949965" transform="rotate(-0, 392.445793, 16.949965)">ShipsEar</text>
   </g>
   <g id="patch_21">
    <path d="M 324.643322 114.570978 
Q 320.132349 114.204865 315.621375 113.838751 
" style="fill: none; stroke: #4e79a7; stroke-width: 0.7; stroke-linecap: round"/>
   </g>
   <g id="text_36">
    <text style="fill: #4e79a7; font: 600 6px 'sans-serif'; text-anchor: start" x="328.633607" y="119.148762" transform="rotate(-0, 328.633607, 119.148762)">UATC-DenseNet (83.31)</text>
   </g>
   <g id="patch_22">
    <path d="M 317.735365 88.444303 
Q 313.207392 89.106838 308.679418 89.769373 
" style="fill: none; stroke: #d17a22; stroke-width: 0.7; stroke-linecap: round"/>
   </g>
   <g id="text_37">
    <text style="fill: #d17a22; font: 600 6px 'sans-serif'; text-anchor: start" x="321.711651" y="86.756119" transform="rotate(-0, 321.711651, 86.756119)">1DCT (84.25)</text>
   </g>
   <g id="patch_23">
    <path d="M 394.250818 31.673374 
Q 431.786998 38.211671 469.323178 44.749968 
" style="fill: none; stroke: #59a14f; stroke-width: 0.7; stroke-linecap: round"/>
   </g>
   <g id="text_38">
    <text style="fill: #59a14f; font: 600 6px 'sans-serif'; text-anchor: end" x="390.280733" y="28.817634" transform="rotate(-0, 390.280733, 28.817634)">MSRDN (92.92)</text>
   </g>
   <g id="patch_24">
    <path d="M 332.06839 164.55457 
Q 318.571033 164.55457 305.073675 164.55457 
" style="fill: none; stroke: #8064a2; stroke-width: 0.7; stroke-linecap: round"/>
   </g>
   <g id="text_39">
    <text style="fill: #8064a2; font: 600 6px 'sans-serif'; text-anchor: start" x="336.075076" y="166.10707" transform="rotate(-0, 336.075076, 166.10707)">LNN (w/ KD) (92.39)</text>
   </g>
   <g id="patch_25">
    <path d="M 463.567387 40.419925 
Q 470.078224 45.477704 476.589062 50.535484 
" style="fill: none; stroke: #d05a6e; stroke-width: 0.7; stroke-linecap: round"/>
   </g>
   <g id="text_40">
    <text style="fill: #d05a6e; font: 600 6px 'sans-serif'; text-anchor: end" x="472.960397" y="35.930096" transform="rotate(-0, 472.960397, 35.930096)">ALSI (97.89)</text>
   </g>
   <g id="patch_26">
    <path d="M 459.818455 105.971253 
Q 438.521412 97.777385 417.224369 89.583517 
" style="fill: none; stroke: #2a9d8f; stroke-width: 0.7; stroke-linecap: round"/>
   </g>
   <g id="text_41">
    <text style="fill: #2a9d8f; font: 600 6px 'sans-serif'; text-anchor: start" x="448.423184" y="113.058284" transform="rotate(-0, 448.423184, 113.058284)">MHT-UATR (96.15)</text>
   </g>
   <g id="patch_27">
    <path d="M 399.406556 75.517363 
Q 424.917389 72.934079 450.428222 70.350796 
" style="fill: none; stroke: #b07aa1; stroke-width: 0.7; stroke-linecap: round"/>
   </g>
   <g id="text_42">
    <text style="fill: #b07aa1; font: 600 6px 'sans-serif'; text-anchor: end" x="395.41127" y="79.601226" transform="rotate(-0, 395.41127, 79.601226)">CAF-JT (97.65)</text>
   </g>
   <g id="patch_28">
    <path d="M 438.101812 112.613899 
Q 455.074685 86.12716 472.047559 59.64042 
" style="fill: none; stroke: #a56a43; stroke-width: 0.7; stroke-linecap: round"/>
   </g>
   <g id="text_43">
    <text style="fill: #a56a43; font: 600 6px 'sans-serif'; text-anchor: end" x="463.664643" y="120.669406" transform="rotate(-0, 463.664643, 120.669406)">T-F Token ViT (98.15)</text>
   </g>
   <g id="legend_2">
    <g id="patch_29">
     <path d="M 437.996672 181.995965 
L 498.108469 181.995965 
L 498.108469 149.247137 
L 437.996672 149.247137 
z
" style="fill: #ffffff; opacity: 0.95; stroke: #000000; stroke-width: 0.7; stroke-linejoin: miter"/>
    </g>
    <g id="text_44">
     <text style="font: 7px 'sans-serif'; text-anchor: start" x="451.769914" y="158.157606" transform="rotate(-0, 451.769914, 158.157606)">Input Type</text>
    </g>
    <g id="line2d_119">
     <g>
      <use xlink:href="#m1ccfc22ed6" x="448.396672" y="165.258465" style="fill: #74808c"/>
     </g>
    </g>
    <g id="text_45">
     <text style="font: 6.5px 'sans-serif'; text-anchor: start" x="458.796672" y="167.533465" transform="rotate(-0, 458.796672, 167.533465)">Mel</text>
    </g>
    <g id="line2d_120">
     <g>
      <use xlink:href="#mac6bf04ec4" x="448.396672" y="174.452918" style="fill: #74808c"/>
     </g>
    </g>
    <g id="text_46">
     <text style="font: 6.5px 'sans-serif'; text-anchor: start" x="458.796672" y="176.727918" transform="rotate(-0, 458.796672, 176.727918)">Audio signal</text>
    </g>
   </g>
  </g>
 </g>
 <defs>
  <clipPath id="p897614005b">
   <rect x="37.390469" y="21.949965" width="217.825352" height="163.296"/>
  </clipPath>
  <clipPath id="p15e8e75094">
   <rect x="283.533117" y="21.949965" width="217.825352" height="163.296"/>
  </clipPath>
 </defs>
</svg>
