<?xml version="1.0" encoding="utf-8" standalone="no"?>
<!DOCTYPE svg PUBLIC "-//W3C//DTD SVG 1.1//EN"
  "http://www.w3.org/Graphics/SVG/1.1/DTD/svg11.dtd">
<svg xmlns:xlink="http://www.w3.org/1999/xlink" width="328.635812pt" height="262.574pt" viewBox="0 0 328.635812 262.574" xmlns="http://www.w3.org/2000/svg" version="1.1">
 <metadata>
  <rdf:RDF xmlns:dc="http://purl.org/dc/elements/1.1/" xmlns:cc="http://creativecommons.org/ns#" xmlns:rdf="http://www.w3.org/1999/02/22-rdf-syntax-ns#">
   <cc:Work>
    <dc:type rdf:resource="http://purl.org/dc/dcmitype/StillImage"/>
    <dc:date>2026-07-19T01:18:57.065782</dc:date>
    <dc:format>image/svg+xml</dc:format>
    <dc:creator>
     <cc:Agent>
      <dc:title>Matplotlib v3.5.3, https://matplotlib.org/</dc:title>
     </cc:Agent>
    </dc:creator>
   </cc:Work>
  </rdf:RDF>
 </metadata>
 <defs>
  <style type="text/css">*{stroke-linejoin: round; stroke-linecap: butt}</style>
 </defs>
 <g id="figure_1">
  <g id="patch_1">
   <path d="M 0 262.574 
L 328.635812 262.574 
L 328.635812 0 
L 0 0 
z
" style="fill: #ffffff"/>
  </g>
  <g id="axes_1">
   <g id="patch_2">
    <path d="M 43.227813 179.568 
L 321.435812 179.568 
L 321.435812 37.008 
L 43.227813 37.008 
z
" style="fill: #ffffff"/>
   </g>
   <g id="matplotlib.axis_1">
    <g id="xtick_1">
     <g id="line2d_1">
      <path d="M 54.537081 179.568 
L 54.537081 37.008 
" clip-path="url(#p91db8a2af2)" style="fill: none; stroke: #d9dee3; stroke-opacity: 0.85; stroke-width: 0.6; stroke-linecap: square"/>
     </g>
     <g id="line2d_2">
      <defs>
       <path id="mc22ade2d8e" d="M 0 0 
L 0 3.5 
" style="stroke: #000000; stroke-width: 0.8"/>
      </defs>
      <g>
       <use xlink:href="#mc22ade2d8e" x="54.537081" y="179.568" style="stroke: #000000; stroke-width: 0.8"/>
      </g>
     </g>
     <g id="text_1">
      <text style="font: 7px 'sans-serif'; text-anchor: middle" x="54.537081" y="191.578469" transform="rotate(-0, 54.537081, 191.578469)">0</text>
     </g>
    </g>
    <g id="xtick_2">
     <g id="line2d_3">
      <path d="M 112.440534 179.568 
L 112.440534 37.008 
" clip-path="url(#p91db8a2af2)" style="fill: none; stroke: #d9dee3; stroke-opacity: 0.85; stroke-width: 0.6; stroke-linecap: square"/>
     </g>
     <g id="line2d_4">
      <g>
       <use xlink:href="#mc22ade2d8e" x="112.440534" y="179.568" style="stroke: #000000; stroke-width: 0.8"/>
      </g>
     </g>
     <g id="text_2">
      <text style="font: 7px 'sans-serif'; text-anchor: middle" x="112.440534" y="191.578469" transform="rotate(-0, 112.440534, 191.578469)">0.8</text>
     </g>
    </g>
    <g id="xtick_3">
     <g id="line2d_5">
      <path d="M 170.343988 179.568 
L 170.343988 37.008 
" clip-path="url(#p91db8a2af2)" style="fill: none; stroke: #d9dee3; stroke-opacity: 0.85; stroke-width: 0.6; stroke-linecap: square"/>
     </g>
     <g id="line2d_6">
      <g>
       <use xlink:href="#mc22ade2d8e" x="170.343988" y="179.568" style="stroke: #000000; stroke-width: 0.8"/>
      </g>
     </g>
     <g id="text_3">
      <text style="font: 7px 'sans-serif'; text-anchor: middle" x="170.343988" y="191.578469" transform="rotate(-0, 170.343988, 191.578469)">1.6</text>
     </g>
    </g>
    <g id="xtick_4">
     <g id="line2d_7">
      <path d="M 228.247442 179.568 
L 228.247442 37.008 
" clip-path="url(#p91db8a2af2)" style="fill: none; stroke: #d9dee3; stroke-opacity: 0.85; stroke-width: 0.6; stroke-linecap: square"/>
     </g>
     <g id="line2d_8">
      <g>
       <use xlink:href="#mc22ade2d8e" x="228.247442" y="179.568" style="stroke: #000000; stroke-width: 0.8"/>
      </g>
     </g>
     <g id="text_4">
      <text style="font: 7px 'sans-serif'; text-anchor: middle" x="228.247442" y="191.578469" transform="rotate(-0, 228.247442, 191.578469)">2.4</text>
     </g>
    </g>
    <g id="xtick_5">
     <g id="line2d_9">
      <path d="M 286.150895 179.568 
L 286.150895 37.008 
" clip-path="url(#p91db8a2af2)" style="fill: none; stroke: #d9dee3; stroke-opacity: 0.85; stroke-width: 0.6; stroke-linecap: square"/>
     </g>
     <g id="line2d_10">
      <g>
       <use xlink:href="#mc22ade2d8e" x="286.150895" y="179.568" style="stroke: #000000; stroke-width: 0.8"/>
      </g>
     </g>
     <g id="text_5">
      <text style="font: 7px 'sans-serif'; text-anchor: middle" x="286.150895" y="191.578469" transform="rotate(-0, 286.150895, 191.578469)">3.2</text>
     </g>
    </g>
    <g id="text_6">
     <text style="font: 8px 'sans-serif'; text-anchor: middle" x="182.331812" y="202.793469" transform="rotate(-0, 182.331812, 202.793469)">Parameter efficiency (1/M)</text>
    </g>
   </g>
   <g id="matplotlib.axis_2">
    <g id="ytick_1">
     <g id="line2d_11">
      <path d="M 43.227813 173.772878 
L 321.435812 173.772878 
" clip-path="url(#p91db8a2af2)" style="fill: none; stroke: #d9dee3; stroke-opacity: 0.85; stroke-width: 0.6; stroke-linecap: square"/>
     </g>
     <g id="line2d_12">
      <defs>
       <path id="m3eb7b87449" d="M 0 0 
L -3.5 0 
" style="stroke: #000000; stroke-width: 0.8"/>
      </defs>
      <g>
       <use xlink:href="#m3eb7b87449" x="43.227813" y="173.772878" style="stroke: #000000; stroke-width: 0.8"/>
      </g>
     </g>
     <g id="text_7">
      <text style="font: 7px 'sans-serif'; text-anchor: end" x="36.227813" y="176.278112" transform="rotate(-0, 36.227813, 176.278112)">0</text>
     </g>
    </g>
    <g id="ytick_2">
     <g id="line2d_13">
      <path d="M 43.227813 146.433811 
L 321.435812 146.433811 
" clip-path="url(#p91db8a2af2)" style="fill: none; stroke: #d9dee3; stroke-opacity: 0.85; stroke-width: 0.6; stroke-linecap: square"/>
     </g>
     <g id="line2d_14">
      <g>
       <use xlink:href="#m3eb7b87449" x="43.227813" y="146.433811" style="stroke: #000000; stroke-width: 0.8"/>
      </g>
     </g>
     <g id="text_8">
      <text style="font: 7px 'sans-serif'; text-anchor: end" x="36.227813" y="148.939045" transform="rotate(-0, 36.227813, 148.939045)">0.004</text>
     </g>
    </g>
    <g id="ytick_3">
     <g id="line2d_15">
      <path d="M 43.227813 119.094743 
L 321.435812 119.094743 
" clip-path="url(#p91db8a2af2)" style="fill: none; stroke: #d9dee3; stroke-opacity: 0.85; stroke-width: 0.6; stroke-linecap: square"/>
     </g>
     <g id="line2d_16">
      <g>
       <use xlink:href="#m3eb7b87449" x="43.227813" y="119.094743" style="stroke: #000000; stroke-width: 0.8"/>
      </g>
     </g>
     <g id="text_9">
      <text style="font: 7px 'sans-serif'; text-anchor: end" x="36.227813" y="121.599978" transform="rotate(-0, 36.227813, 121.599978)">0.008</text>
     </g>
    </g>
    <g id="ytick_4">
     <g id="line2d_17">
      <path d="M 43.227813 91.755676 
L 321.435812 91.755676 
" clip-path="url(#p91db8a2af2)" style="fill: none; stroke: #d9dee3; stroke-opacity: 0.85; stroke-width: 0.6; stroke-linecap: square"/>
     </g>
     <g id="line2d_18">
      <g>
       <use xlink:href="#m3eb7b87449" x="43.227813" y="91.755676" style="stroke: #000000; stroke-width: 0.8"/>
      </g>
     </g>
     <g id="text_10">
      <text style="font: 7px 'sans-serif'; text-anchor: end" x="36.227813" y="94.26091" transform="rotate(-0, 36.227813, 94.26091)">0.012</text>
     </g>
    </g>
    <g id="ytick_5">
     <g id="line2d_19">
      <path d="M 43.227813 64.416609 
L 321.435812 64.416609 
" clip-path="url(#p91db8a2af2)" style="fill: none; stroke: #d9dee3; stroke-opacity: 0.85; stroke-width: 0.6; stroke-linecap: square"/>
     </g>
     <g id="line2d_20">
      <g>
       <use xlink:href="#m3eb7b87449" x="43.227813" y="64.416609" style="stroke: #000000; stroke-width: 0.8"/>
      </g>
     </g>
     <g id="text_11">
      <text style="font: 7px 'sans-serif'; text-anchor: end" x="36.227813" y="66.921843" transform="rotate(-0, 36.227813, 66.921843)">0.016</text>
     </g>
    </g>
    <g id="ytick_6">
     <g id="line2d_21">
      <path d="M 43.227813 37.077541 
L 321.435812 37.077541 
" clip-path="url(#p91db8a2af2)" style="fill: none; stroke: #d9dee3; stroke-opacity: 0.85; stroke-width: 0.6; stroke-linecap: square"/>
     </g>
     <g id="line2d_22">
      <g>
       <use xlink:href="#m3eb7b87449" x="43.227813" y="37.077541" style="stroke: #000000; stroke-width: 0.8"/>
      </g>
     </g>
     <g id="text_12">
      <text style="font: 7px 'sans-serif'; text-anchor: end" x="36.227813" y="39.582776" transform="rotate(-0, 36.227813, 39.582776)">0.020</text>
     </g>
    </g>
    <g id="text_13">
     <text style="font: 8px 'sans-serif'; text-anchor: middle" x="13.02875" y="108.288" transform="rotate(-90, 13.02875, 108.288)">Compute efficiency (1/MFLOPs)</text>
    </g>
   </g>
   <g id="patch_3">
    <path d="M 43.227813 179.568 
L 43.227813 37.008 
" style="fill: none; stroke: #000000; stroke-linejoin: miter; stroke-linecap: square"/>
   </g>
   <g id="patch_4">
    <path d="M 321.435812 179.568 
L 321.435812 37.008 
" style="fill: none; stroke: #000000; stroke-linejoin: miter; stroke-linecap: square"/>
   </g>
   <g id="patch_5">
    <path d="M 43.227813 179.568 
L 321.435812 179.568 
" style="fill: none; stroke: #000000; stroke-linejoin: miter; stroke-linecap: square"/>
   </g>
   <g id="patch_6">
    <path d="M 43.227813 37.008 
L 321.435812 37.008 
" style="fill: none; stroke: #000000; stroke-linejoin: miter; stroke-linecap: square"/>
   </g>
   <g id="PathCollection_1">
    <path d="M 227.610531 148.364563 
L 220.714085 162.157457 
L 234.506978 162.157457 
z
" clip-path="url(#p91db8a2af2)" style="fill: #4e79a7; fill-opacity: 0.78"/>
   </g>
   <g id="PathCollection_2">
    <path d="M 260.804727 160.797561 
L 255.804727 170.797561 
L 265.804727 170.797561 
z
" clip-path="url(#p91db8a2af2)" style="fill: #d17a22; fill-opacity: 0.78"/>
   </g>
   <g id="PathCollection_3">
    <path d="M 57.562238 158.733598 
L 44.104989 185.648097 
L 71.019488 185.648097 
z
" clip-path="url(#p91db8a2af2)" style="fill: #59a14f; fill-opacity: 0.78"/>
   </g>
   <g id="PathCollection_4">
    <path d="M 57.091044 162.424107 
L 49.032569 167.07667 
L 49.032569 176.381796 
L 57.091044 181.034359 
L 65.149519 176.381796 
L 65.149519 167.07667 
z
" clip-path="url(#p91db8a2af2)" style="fill: #d05a6e; fill-opacity: 0.78"/>
   </g>
   <g id="PathCollection_5">
    <path d="M 67.649276 160.105316 
L 62.310166 163.187853 
L 62.310166 169.352926 
L 67.649276 172.435463 
L 72.988386 169.352926 
L 72.988386 163.187853 
z
" clip-path="url(#p91db8a2af2)" style="fill: #2a9d8f; fill-opacity: 0.78"/>
   </g>
   <g id="PathCollection_6">
    <path d="M 59.417682 160.918087 
L 51.62854 165.41515 
L 51.62854 174.409276 
L 59.417682 178.906339 
L 67.206824 174.409276 
L 67.206824 165.41515 
z
" clip-path="url(#p91db8a2af2)" style="fill: #b07aa1; fill-opacity: 0.78"/>
   </g>
   <g id="PathCollection_7">
    <path d="M 57.457957 161.924585 
L 49.296104 166.636833 
L 49.296104 176.06133 
L 57.457957 180.773578 
L 65.619811 176.06133 
L 65.619811 166.636833 
z
" clip-path="url(#p91db8a2af2)" style="fill: #a56a43; fill-opacity: 0.78"/>
   </g>
   <g id="text_14">
    <text style="font: 700 8px 'sans-serif'; text-anchor: middle" x="182.331812" y="32.008" transform="rotate(-0, 182.331812, 32.008)">Efficiency plane</text>
   </g>
   <g id="PathCollection_8">
    <path d="M 280.722447 74.453563 
C 285.120343 74.453563 289.338704 72.70626 292.448486 69.596478 
C 295.558268 66.486696 297.305571 62.268335 297.305571 57.870439 
C 297.305571 53.472543 295.558268 49.254182 292.448486 46.1444 
C 289.338704 43.034618 285.120343 41.287315 280.722447 41.287315 
C 276.324551 41.287315 272.106189 43.034618 268.996407 46.1444 
C 265.886625 49.254182 264.139323 53.472543 264.139323 57.870439 
C 264.139323 62.268335 265.886625 66.486696 268.996407 69.596478 
C 272.106189 72.70626 276.324551 74.453563 280.722447 74.453563 
z
" clip-path="url(#p91db8a2af2)" style="fill: #8064a2; fill-opacity: 0.92"/>
   </g>
   <g id="legend_1">
    <g id="text_15">
     <text style="font: 6.2px 'sans-serif'; text-anchor: start" x="151.314859" y="216.312244" transform="rotate(-0, 151.314859, 216.312244)">Bubble area: Accuracy</text>
    </g>
    <g id="line2d_23">
     <defs>
      <path id="mf909dadb98" d="M 0 3.1 
C 0.82213 3.1 1.610698 2.773364 2.192031 2.192031 
C 2.773364 1.610698 3.1 0.82213 3.1 0 
C 3.1 -0.82213 2.773364 -1.610698 2.192031 -2.192031 
C 1.610698 -2.773364 0.82213 -3.1 0 -3.1 
C -0.82213 -3.1 -1.610698 -2.773364 -2.192031 -2.192031 
C -2.773364 -1.610698 -3.1 -0.82213 -3.1 0 
C -3.1 0.82213 -2.773364 1.610698 -2.192031 2.192031 
C -1.610698 2.773364 -0.82213 3.1 0 3.1 
z
"/>
     </defs>
     <g>
      <use xlink:href="#mf909dadb98" x="143.650797" y="222.638681" style="fill: #9aa7b4"/>
     </g>
    </g>
    <g id="text_16">
     <text style="font: 5.8px 'sans-serif'; text-anchor: start" x="153.800797" y="224.668681" transform="rotate(-0, 153.800797, 224.668681)">81.1</text>
    </g>
    <g id="line2d_24">
     <defs>
      <path id="me556bf8039" d="M 0 5.673587 
C 1.504653 5.673587 2.947882 5.075782 4.011832 4.011832 
C 5.075782 2.947882 5.673587 1.504653 5.673587 0 
C 5.673587 -1.504653 5.075782 -2.947882 4.011832 -4.011832 
C 2.947882 -5.075782 1.504653 -5.673587 0 -5.673587 
C -1.504653 -5.673587 -2.947882 -5.075782 -4.011832 -4.011832 
C -5.075782 -2.947882 -5.673587 -1.504653 -5.673587 0 
C -5.673587 1.504653 -5.075782 2.947882 -4.011832 4.011832 
C -2.947882 5.075782 -1.504653 5.673587 0 5.673587 
z
"/>
     </defs>
     <g>
      <use xlink:href="#me556bf8039" x="175.238141" y="222.638681" style="fill: #9aa7b4"/>
     </g>
    </g>
    <g id="text_17">
     <text style="font: 5.8px 'sans-serif'; text-anchor: start" x="185.388141" y="224.668681" transform="rotate(-0, 185.388141, 224.668681)">84.0</text>
    </g>
    <g id="line2d_25">
     <defs>
      <path id="mbe499cb002" d="M 0 10.281537 
C 2.726695 10.281537 5.34208 9.198209 7.270144 7.270144 
C 9.198209 5.34208 10.281537 2.726695 10.281537 0 
C 10.281537 -2.726695 9.198209 -5.34208 7.270144 -7.270144 
C 5.34208 -9.198209 2.726695 -10.281537 0 -10.281537 
C -2.726695 -10.281537 -5.34208 -9.198209 -7.270144 -7.270144 
C -9.198209 -5.34208 -10.281537 -2.726695 -10.281537 0 
C -10.281537 2.726695 -9.198209 5.34208 -7.270144 7.270144 
C -5.34208 9.198209 -2.726695 10.281537 0 10.281537 
z
"/>
     </defs>
     <g>
      <use xlink:href="#mbe499cb002" x="206.825484" y="222.638681" style="fill: #9aa7b4"/>
     </g>
    </g>
    <g id="text_18">
     <text style="font: 5.8px 'sans-serif'; text-anchor: start" x="216.975484" y="224.668681" transform="rotate(-0, 216.975484, 224.668681)">93.4</text>
    </g>
   </g>
   <g id="legend_2">
    <g id="text_19">
     <text style="font: 6.2px 'sans-serif'; text-anchor: start" x="151.314859" y="216.312244" transform="rotate(-0, 151.314859, 216.312244)">Bubble area: Accuracy</text>
    </g>
    <g id="line2d_26">
     <g>
      <use xlink:href="#mf909dadb98" x="143.650797" y="222.638681" style="fill: #9aa7b4"/>
     </g>
    </g>
    <g id="text_20">
     <text style="font: 5.8px 'sans-serif'; text-anchor: start" x="153.800797" y="224.668681" transform="rotate(-0, 153.800797, 224.668681)">81.1</text>
    </g>
    <g id="line2d_27">
     <g>
      <use xlink:href="#me556bf8039" x="175.238141" y="222.638681" style="fill: #9aa7b4"/>
     </g>
    </g>
    <g id="text_21">
     <text style="font: 5.8px 'sans-serif'; text-anchor: start" x="185.388141" y="224.668681" transform="rotate(-0, 185.388141, 224.668681)">84.0</text>
    </g>
    <g id="line2d_28">
     <g>
      <use xlink:href="#mbe499cb002" x="206.825484" y="222.638681" style="fill: #9aa7b4"/>
     </g>
    </g>
    <g id="text_22">
     <text style="font: 5.8px 'sans-serif'; text-anchor: start" x="216.975484" y="224.668681" transform="rotate(-0, 216.975484, 224.668681)">93.4</text>
    </g>
   </g>
   <g id="patch_7">
    <path d="M 204.869255 134.503093 
Q 215.130867 143.869748 225.39248 153.236404 
" style="fill: none; stroke: #4e79a7; stroke-width: 0.65; stroke-linecap: round"/>
   </g>
   <g id="text_23">
    <text style="fill: #4e79a7; font: 600 6.2px 'sans-serif'; text-anchor: end" x="232.409252" y="129.85065" transform="rotate(-0, 232.409252, 129.85065)">UATC-DenseNet (82.22)</text>
   </g>
   <g id="patch_8">
    <path d="M 260.274847 165.69419 
Q 260.539787 165.745875 260.804727 165.797561 
" style="fill: none; stroke: #d17a22; stroke-width: 0.65; stroke-linecap: round"/>
   </g>
   <g id="text_24">
    <text style="fill: #d17a22; font: 600 6.2px 'sans-serif'; text-anchor: end" x="276.922532" y="166.91625" transform="rotate(-0, 276.922532, 166.91625)">1DCT (81.11)</text>
   </g>
   <g id="patch_9">
    <path d="M 85.709154 66.656696 
Q 72.022665 117.97287 58.336176 169.289045 
" style="fill: none; stroke: #59a14f; stroke-width: 0.65; stroke-linecap: round"/>
   </g>
   <g id="text_25">
    <text style="fill: #59a14f; font: 600 6.2px 'sans-serif'; text-anchor: start" x="65.484453" y="61.42185" transform="rotate(-0, 65.484453, 61.42185)">MSRDN (88.79)</text>
   </g>
   <g id="patch_10">
    <path d="M 248.561748 93.343994 
Q 263.634131 76.719013 278.706514 60.094032 
" style="fill: none; stroke: #8064a2; stroke-width: 0.65; stroke-linecap: round"/>
   </g>
   <g id="text_26">
    <text style="fill: #8064a2; font: 700 6.2px 'sans-serif'; text-anchor: end" x="271.358372" y="101.33865" transform="rotate(-0, 271.358372, 101.33865)">LNN (w/ KD) (93.41)</text>
   </g>
   <g id="patch_11">
    <path d="M 81.471328 76.64799 
Q 69.653571 122.736336 57.835815 168.824682 
" style="fill: none; stroke: #d05a6e; stroke-width: 0.65; stroke-linecap: round"/>
   </g>
   <g id="text_27">
    <text style="fill: #d05a6e; font: 600 6.2px 'sans-serif'; text-anchor: start" x="65.484453" y="71.40105" transform="rotate(-0, 65.484453, 71.40105)">ALSI (84.14)</text>
   </g>
   <g id="patch_12">
    <path d="M 89.627661 106.521112 
Q 79.15694 134.98626 68.68622 163.451408 
" style="fill: none; stroke: #2a9d8f; stroke-width: 0.65; stroke-linecap: round"/>
   </g>
   <g id="text_28">
    <text style="fill: #2a9d8f; font: 600 6.2px 'sans-serif'; text-anchor: start" x="65.484453" y="101.33865" transform="rotate(-0, 65.484453, 101.33865)">MHT-UATR (81.75)</text>
   </g>
   <g id="patch_13">
    <path d="M 84.832552 96.552336 
Q 72.616072 131.815136 60.399592 167.077936 
" style="fill: none; stroke: #b07aa1; stroke-width: 0.65; stroke-linecap: round"/>
   </g>
   <g id="text_29">
    <text style="fill: #b07aa1; font: 600 6.2px 'sans-serif'; text-anchor: start" x="65.484453" y="91.35945" transform="rotate(-0, 65.484453, 91.35945)">CAF-JT (83.86)</text>
   </g>
   <g id="patch_14">
    <path d="M 93.34784 86.529479 
Q 75.987226 127.558322 58.626613 168.587164 
" style="fill: none; stroke: #a56a43; stroke-width: 0.65; stroke-linecap: round"/>
   </g>
   <g id="text_30">
    <text style="fill: #a56a43; font: 600 6.2px 'sans-serif'; text-anchor: start" x="65.484453" y="81.38025" transform="rotate(-0, 65.484453, 81.38025)">T-F Token ViT (84.25)</text>
   </g>
  </g>
  <g id="text_31">
   <text style="font: 700 10px 'sans-serif'; text-anchor: middle" x="162.459812" y="14.479687" transform="rotate(-0, 162.459812, 14.479687)">DeepShip</text>
  </g>
  <g id="legend_3">
   <g id="patch_15">
    <path d="M 57.990086 255.374 
L 266.929539 255.374 
L 266.929539 234.251031 
L 57.990086 234.251031 
z
" style="fill: #ffffff; opacity: 0.96; stroke: #000000; stroke-width: 0.7; stroke-linejoin: miter"/>
   </g>
   <g id="text_32">
    <text style="font: 7px 'sans-serif'; text-anchor: start" x="133.728094" y="241.946812" transform="rotate(-0, 133.728094, 241.946812)">Model / Input Type</text>
   </g>
   <g id="line2d_29">
    <defs>
     <path id="me9022308a4" d="M 0 3.5 
C 0.928211 3.5 1.81853 3.131218 2.474874 2.474874 
C 3.131218 1.81853 3.5 0.928211 3.5 0 
C 3.5 -0.928211 3.131218 -1.81853 2.474874 -2.474874 
C 1.81853 -3.131218 0.928211 -3.5 0 -3.5 
C -0.928211 -3.5 -1.81853 -3.131218 -2.474874 -2.474874 
C -3.131218 -1.81853 -3.5 -0.928211 -3.5 0 
C -3.5 0.928211 -3.131218 1.81853 -2.474874 2.474874 
C -1.81853 3.131218 -0.928211 3.5 0 3.5 
z
"/>
    </defs>
    <g>
     <use xlink:href="#me9022308a4" x="67.090086" y="249.130953" style="fill: #74808c"/>
    </g>
   </g>
   <g id="text_33">
    <text style="font: 6.5px 'sans-serif'; text-anchor: start" x="76.840086" y="251.405953" transform="rotate(-0, 76.840086, 251.405953)">LNN (proposed, audio)</text>
   </g>
   <g id="line2d_30">
    <defs>
     <path id="m4ba8857d6c" d="M 0 -3.5 
L -3.031089 -1.75 
L -3.031089 1.75 
L -0 3.5 
L 3.031089 1.75 
L 3.031089 -1.75 
z
"/>
    </defs>
    <g>
     <use xlink:href="#m4ba8857d6c" x="155.59368" y="249.130953" style="fill: #74808c"/>
    </g>
   </g>
   <g id="text_34">
    <text style="font: 6.5px 'sans-serif'; text-anchor: start" x="165.34368" y="251.405953" transform="rotate(-0, 165.34368, 251.405953)">Mel input</text>
   </g>
   <g id="line2d_31">
    <defs>
     <path id="md01601e630" d="M 0 -3.5 
L -3.5 3.5 
L 3.5 3.5 
z
"/>
    </defs>
    <g>
     <use xlink:href="#md01601e630" x="204.716414" y="249.130953" style="fill: #74808c"/>
    </g>
   </g>
   <g id="text_35">
    <text style="font: 6.5px 'sans-serif'; text-anchor: start" x="214.466414" y="251.405953" transform="rotate(-0, 214.466414, 251.405953)">Other audio input</text>
   </g>
  </g>
 </g>
 <defs>
  <clipPath id="p91db8a2af2">
   <rect x="43.227813" y="37.008" width="278.208" height="142.56"/>
  </clipPath>
 </defs>
</svg>
